<mxfile host="app.diagrams.net" agent="Mozilla/5.0 (Windows NT 10.0; Win64; x64) AppleWebKit/537.36 (KHTML, like Gecko) Chrome/139.0.0.0 Safari/537.36" version="28.1.0" pages="2">
  <diagram id="g3efRKUIFH3CFgadWszy" name="Versiones">
    <mxGraphModel dx="1123" dy="710" grid="1" gridSize="10" guides="1" tooltips="1" connect="1" arrows="1" fold="1" page="1" pageScale="1" pageWidth="827" pageHeight="1169" math="0" shadow="0">
      <root>
        <mxCell id="0" />
        <mxCell id="1" parent="0" />
        <mxCell id="QOJwp3pk0zYt3Cambvdv-1" value="" style="shape=table;startSize=0;container=1;collapsible=0;childLayout=tableLayout;fontFamily=Roboto;fontSource=https://fonts.googleapis.com/css?family=Roboto;fontSize=16;strokeWidth=1;align=left;" parent="1" vertex="1">
          <mxGeometry x="80" y="101" width="1010" height="339" as="geometry" />
        </mxCell>
        <mxCell id="QOJwp3pk0zYt3Cambvdv-2" value="" style="shape=partialRectangle;collapsible=0;dropTarget=0;pointerEvents=0;fillColor=none;top=0;left=0;bottom=0;right=0;points=[[0,0.5],[1,0.5]];portConstraint=eastwest;fontFamily=Roboto;fontSource=https://fonts.googleapis.com/css?family=Roboto;fontSize=16;strokeWidth=1;" parent="QOJwp3pk0zYt3Cambvdv-1" vertex="1">
          <mxGeometry width="1010" height="40" as="geometry" />
        </mxCell>
        <mxCell id="QOJwp3pk0zYt3Cambvdv-3" value="NOMBRE" style="shape=partialRectangle;html=1;whiteSpace=wrap;connectable=0;overflow=hidden;fillColor=none;top=0;left=0;bottom=0;right=0;pointerEvents=1;fontFamily=Roboto;fontSource=https://fonts.googleapis.com/css?family=Roboto;fontSize=16;strokeWidth=1;" parent="QOJwp3pk0zYt3Cambvdv-2" vertex="1">
          <mxGeometry width="356" height="40" as="geometry">
            <mxRectangle width="356" height="40" as="alternateBounds" />
          </mxGeometry>
        </mxCell>
        <mxCell id="QOJwp3pk0zYt3Cambvdv-4" value="FECHA" style="shape=partialRectangle;html=1;whiteSpace=wrap;connectable=0;overflow=hidden;fillColor=none;top=0;left=0;bottom=0;right=0;pointerEvents=1;fontFamily=Roboto;fontSource=https://fonts.googleapis.com/css?family=Roboto;fontSize=16;strokeWidth=1;" parent="QOJwp3pk0zYt3Cambvdv-2" vertex="1">
          <mxGeometry x="356" width="109" height="40" as="geometry">
            <mxRectangle width="109" height="40" as="alternateBounds" />
          </mxGeometry>
        </mxCell>
        <mxCell id="QOJwp3pk0zYt3Cambvdv-5" value="VERSION" style="shape=partialRectangle;html=1;whiteSpace=wrap;connectable=0;overflow=hidden;fillColor=none;top=0;left=0;bottom=0;right=0;pointerEvents=1;fontFamily=Roboto;fontSource=https://fonts.googleapis.com/css?family=Roboto;fontSize=16;strokeWidth=1;" parent="QOJwp3pk0zYt3Cambvdv-2" vertex="1">
          <mxGeometry x="465" width="80" height="40" as="geometry">
            <mxRectangle width="80" height="40" as="alternateBounds" />
          </mxGeometry>
        </mxCell>
        <mxCell id="QOJwp3pk0zYt3Cambvdv-6" value="COMENTARIO" style="shape=partialRectangle;html=1;whiteSpace=wrap;connectable=0;overflow=hidden;fillColor=none;top=0;left=0;bottom=0;right=0;pointerEvents=1;fontFamily=Roboto;fontSource=https://fonts.googleapis.com/css?family=Roboto;fontSize=16;strokeWidth=1;" parent="QOJwp3pk0zYt3Cambvdv-2" vertex="1">
          <mxGeometry x="545" width="465" height="40" as="geometry">
            <mxRectangle width="465" height="40" as="alternateBounds" />
          </mxGeometry>
        </mxCell>
        <mxCell id="QOJwp3pk0zYt3Cambvdv-7" value="" style="shape=partialRectangle;collapsible=0;dropTarget=0;pointerEvents=0;fillColor=none;top=0;left=0;bottom=0;right=0;points=[[0,0.5],[1,0.5]];portConstraint=eastwest;fontFamily=Roboto;fontSource=https://fonts.googleapis.com/css?family=Roboto;fontSize=16;strokeWidth=1;" parent="QOJwp3pk0zYt3Cambvdv-1" vertex="1">
          <mxGeometry y="40" width="1010" height="40" as="geometry" />
        </mxCell>
        <mxCell id="QOJwp3pk0zYt3Cambvdv-8" value="Christopher Valencia Mendoza" style="shape=partialRectangle;html=1;whiteSpace=wrap;connectable=0;overflow=hidden;fillColor=none;top=0;left=0;bottom=0;right=0;pointerEvents=1;fontFamily=Roboto;fontSource=https://fonts.googleapis.com/css?family=Roboto;fontSize=16;strokeWidth=1;" parent="QOJwp3pk0zYt3Cambvdv-7" vertex="1">
          <mxGeometry width="356" height="40" as="geometry">
            <mxRectangle width="356" height="40" as="alternateBounds" />
          </mxGeometry>
        </mxCell>
        <mxCell id="QOJwp3pk0zYt3Cambvdv-9" value="18/08/2025" style="shape=partialRectangle;html=1;whiteSpace=wrap;connectable=0;overflow=hidden;fillColor=none;top=0;left=0;bottom=0;right=0;pointerEvents=1;fontFamily=Roboto;fontSource=https://fonts.googleapis.com/css?family=Roboto;fontSize=16;strokeWidth=1;" parent="QOJwp3pk0zYt3Cambvdv-7" vertex="1">
          <mxGeometry x="356" width="109" height="40" as="geometry">
            <mxRectangle width="109" height="40" as="alternateBounds" />
          </mxGeometry>
        </mxCell>
        <mxCell id="QOJwp3pk0zYt3Cambvdv-10" value="1.0" style="shape=partialRectangle;html=1;whiteSpace=wrap;connectable=0;overflow=hidden;fillColor=none;top=0;left=0;bottom=0;right=0;pointerEvents=1;fontFamily=Roboto;fontSource=https://fonts.googleapis.com/css?family=Roboto;fontSize=16;strokeWidth=1;" parent="QOJwp3pk0zYt3Cambvdv-7" vertex="1">
          <mxGeometry x="465" width="80" height="40" as="geometry">
            <mxRectangle width="80" height="40" as="alternateBounds" />
          </mxGeometry>
        </mxCell>
        <mxCell id="QOJwp3pk0zYt3Cambvdv-11" value="Creación del Documento" style="shape=partialRectangle;html=1;whiteSpace=wrap;connectable=0;overflow=hidden;fillColor=none;top=0;left=0;bottom=0;right=0;pointerEvents=1;fontFamily=Roboto;fontSource=https://fonts.googleapis.com/css?family=Roboto;fontSize=16;strokeWidth=1;align=left;" parent="QOJwp3pk0zYt3Cambvdv-7" vertex="1">
          <mxGeometry x="545" width="465" height="40" as="geometry">
            <mxRectangle width="465" height="40" as="alternateBounds" />
          </mxGeometry>
        </mxCell>
        <mxCell id="QOJwp3pk0zYt3Cambvdv-12" value="" style="shape=partialRectangle;collapsible=0;dropTarget=0;pointerEvents=0;fillColor=none;top=0;left=0;bottom=0;right=0;points=[[0,0.5],[1,0.5]];portConstraint=eastwest;fontFamily=Roboto;fontSource=https://fonts.googleapis.com/css?family=Roboto;fontSize=16;strokeWidth=1;" parent="QOJwp3pk0zYt3Cambvdv-1" vertex="1">
          <mxGeometry y="80" width="1010" height="179" as="geometry" />
        </mxCell>
        <mxCell id="QOJwp3pk0zYt3Cambvdv-13" value="Christopher Valencia Mendoza" style="shape=partialRectangle;html=1;whiteSpace=wrap;connectable=0;overflow=hidden;fillColor=none;top=0;left=0;bottom=0;right=0;pointerEvents=1;fontFamily=Roboto;fontSource=https://fonts.googleapis.com/css?family=Roboto;fontSize=16;strokeWidth=1;" parent="QOJwp3pk0zYt3Cambvdv-12" vertex="1">
          <mxGeometry width="356" height="179" as="geometry">
            <mxRectangle width="356" height="179" as="alternateBounds" />
          </mxGeometry>
        </mxCell>
        <mxCell id="QOJwp3pk0zYt3Cambvdv-14" value="18/08/2025" style="shape=partialRectangle;html=1;whiteSpace=wrap;connectable=0;overflow=hidden;fillColor=none;top=0;left=0;bottom=0;right=0;pointerEvents=1;fontFamily=Roboto;fontSource=https://fonts.googleapis.com/css?family=Roboto;fontSize=16;strokeWidth=1;" parent="QOJwp3pk0zYt3Cambvdv-12" vertex="1">
          <mxGeometry x="356" width="109" height="179" as="geometry">
            <mxRectangle width="109" height="179" as="alternateBounds" />
          </mxGeometry>
        </mxCell>
        <mxCell id="QOJwp3pk0zYt3Cambvdv-15" value="1.1" style="shape=partialRectangle;html=1;whiteSpace=wrap;connectable=0;overflow=hidden;fillColor=none;top=0;left=0;bottom=0;right=0;pointerEvents=1;fontFamily=Roboto;fontSource=https://fonts.googleapis.com/css?family=Roboto;fontSize=16;strokeWidth=1;" parent="QOJwp3pk0zYt3Cambvdv-12" vertex="1">
          <mxGeometry x="465" width="80" height="179" as="geometry">
            <mxRectangle width="80" height="179" as="alternateBounds" />
          </mxGeometry>
        </mxCell>
        <mxCell id="QOJwp3pk0zYt3Cambvdv-16" value="Lynx-&amp;nbsp;LMV2 -&amp;nbsp;Registro de Operación Debito" style="shape=partialRectangle;html=1;whiteSpace=wrap;connectable=0;overflow=hidden;fillColor=none;top=0;left=0;bottom=0;right=0;pointerEvents=1;fontFamily=Roboto;fontSource=https://fonts.googleapis.com/css?family=Roboto;fontSize=16;strokeWidth=1;align=left;" parent="QOJwp3pk0zYt3Cambvdv-12" vertex="1">
          <mxGeometry x="545" width="465" height="179" as="geometry">
            <mxRectangle width="465" height="179" as="alternateBounds" />
          </mxGeometry>
        </mxCell>
        <mxCell id="QOJwp3pk0zYt3Cambvdv-17" style="shape=partialRectangle;collapsible=0;dropTarget=0;pointerEvents=0;fillColor=none;top=0;left=0;bottom=0;right=0;points=[[0,0.5],[1,0.5]];portConstraint=eastwest;fontFamily=Roboto;fontSource=https://fonts.googleapis.com/css?family=Roboto;fontSize=16;strokeWidth=1;" parent="QOJwp3pk0zYt3Cambvdv-1" vertex="1">
          <mxGeometry y="259" width="1010" height="40" as="geometry" />
        </mxCell>
        <mxCell id="QOJwp3pk0zYt3Cambvdv-18" value="" style="shape=partialRectangle;html=1;whiteSpace=wrap;connectable=0;overflow=hidden;fillColor=none;top=0;left=0;bottom=0;right=0;pointerEvents=1;fontFamily=Roboto;fontSource=https://fonts.googleapis.com/css?family=Roboto;fontSize=16;strokeWidth=1;" parent="QOJwp3pk0zYt3Cambvdv-17" vertex="1">
          <mxGeometry width="356" height="40" as="geometry">
            <mxRectangle width="356" height="40" as="alternateBounds" />
          </mxGeometry>
        </mxCell>
        <mxCell id="QOJwp3pk0zYt3Cambvdv-19" value="" style="shape=partialRectangle;html=1;whiteSpace=wrap;connectable=0;overflow=hidden;fillColor=none;top=0;left=0;bottom=0;right=0;pointerEvents=1;fontFamily=Roboto;fontSource=https://fonts.googleapis.com/css?family=Roboto;fontSize=16;strokeWidth=1;" parent="QOJwp3pk0zYt3Cambvdv-17" vertex="1">
          <mxGeometry x="356" width="109" height="40" as="geometry">
            <mxRectangle width="109" height="40" as="alternateBounds" />
          </mxGeometry>
        </mxCell>
        <mxCell id="QOJwp3pk0zYt3Cambvdv-20" value="" style="shape=partialRectangle;html=1;whiteSpace=wrap;connectable=0;overflow=hidden;fillColor=none;top=0;left=0;bottom=0;right=0;pointerEvents=1;fontFamily=Roboto;fontSource=https://fonts.googleapis.com/css?family=Roboto;fontSize=16;strokeWidth=1;" parent="QOJwp3pk0zYt3Cambvdv-17" vertex="1">
          <mxGeometry x="465" width="80" height="40" as="geometry">
            <mxRectangle width="80" height="40" as="alternateBounds" />
          </mxGeometry>
        </mxCell>
        <mxCell id="QOJwp3pk0zYt3Cambvdv-21" value="" style="shape=partialRectangle;html=1;whiteSpace=wrap;connectable=0;overflow=hidden;fillColor=none;top=0;left=0;bottom=0;right=0;pointerEvents=1;fontFamily=Roboto;fontSource=https://fonts.googleapis.com/css?family=Roboto;fontSize=16;strokeWidth=1;align=left;" parent="QOJwp3pk0zYt3Cambvdv-17" vertex="1">
          <mxGeometry x="545" width="465" height="40" as="geometry">
            <mxRectangle width="465" height="40" as="alternateBounds" />
          </mxGeometry>
        </mxCell>
        <mxCell id="QOJwp3pk0zYt3Cambvdv-22" style="shape=partialRectangle;collapsible=0;dropTarget=0;pointerEvents=0;fillColor=none;top=0;left=0;bottom=0;right=0;points=[[0,0.5],[1,0.5]];portConstraint=eastwest;fontFamily=Roboto;fontSource=https://fonts.googleapis.com/css?family=Roboto;fontSize=16;strokeWidth=1;" parent="QOJwp3pk0zYt3Cambvdv-1" vertex="1">
          <mxGeometry y="299" width="1010" height="40" as="geometry" />
        </mxCell>
        <mxCell id="QOJwp3pk0zYt3Cambvdv-23" style="shape=partialRectangle;html=1;whiteSpace=wrap;connectable=0;overflow=hidden;fillColor=none;top=0;left=0;bottom=0;right=0;pointerEvents=1;fontFamily=Roboto;fontSource=https://fonts.googleapis.com/css?family=Roboto;fontSize=16;strokeWidth=1;" parent="QOJwp3pk0zYt3Cambvdv-22" vertex="1">
          <mxGeometry width="356" height="40" as="geometry">
            <mxRectangle width="356" height="40" as="alternateBounds" />
          </mxGeometry>
        </mxCell>
        <mxCell id="QOJwp3pk0zYt3Cambvdv-24" style="shape=partialRectangle;html=1;whiteSpace=wrap;connectable=0;overflow=hidden;fillColor=none;top=0;left=0;bottom=0;right=0;pointerEvents=1;fontFamily=Roboto;fontSource=https://fonts.googleapis.com/css?family=Roboto;fontSize=16;strokeWidth=1;" parent="QOJwp3pk0zYt3Cambvdv-22" vertex="1">
          <mxGeometry x="356" width="109" height="40" as="geometry">
            <mxRectangle width="109" height="40" as="alternateBounds" />
          </mxGeometry>
        </mxCell>
        <mxCell id="QOJwp3pk0zYt3Cambvdv-25" style="shape=partialRectangle;html=1;whiteSpace=wrap;connectable=0;overflow=hidden;fillColor=none;top=0;left=0;bottom=0;right=0;pointerEvents=1;fontFamily=Roboto;fontSource=https://fonts.googleapis.com/css?family=Roboto;fontSize=16;strokeWidth=1;" parent="QOJwp3pk0zYt3Cambvdv-22" vertex="1">
          <mxGeometry x="465" width="80" height="40" as="geometry">
            <mxRectangle width="80" height="40" as="alternateBounds" />
          </mxGeometry>
        </mxCell>
        <mxCell id="QOJwp3pk0zYt3Cambvdv-26" style="shape=partialRectangle;html=1;whiteSpace=wrap;connectable=0;overflow=hidden;fillColor=none;top=0;left=0;bottom=0;right=0;pointerEvents=1;fontFamily=Roboto;fontSource=https://fonts.googleapis.com/css?family=Roboto;fontSize=16;strokeWidth=1;align=left;" parent="QOJwp3pk0zYt3Cambvdv-22" vertex="1">
          <mxGeometry x="545" width="465" height="40" as="geometry">
            <mxRectangle width="465" height="40" as="alternateBounds" />
          </mxGeometry>
        </mxCell>
        <mxCell id="QOJwp3pk0zYt3Cambvdv-27" value="&lt;font style=&quot;font-size: 20px;&quot;&gt;CONTROL DE VERSIONES&lt;/font&gt;" style="rounded=0;whiteSpace=wrap;html=1;fontColor=#FFFFFF;labelBackgroundColor=none;fillColor=#36393D;fontSize=20;align=left;" parent="1" vertex="1">
          <mxGeometry x="80" y="60" width="1010" height="41" as="geometry" />
        </mxCell>
      </root>
    </mxGraphModel>
  </diagram>
  <diagram name="LYNX - LMV2" id="2YBvvXClWsGukQMizWep">
    <mxGraphModel dx="1965" dy="1243" grid="1" gridSize="10" guides="1" tooltips="1" connect="1" arrows="1" fold="1" page="1" pageScale="1" pageWidth="850" pageHeight="1100" math="0" shadow="0">
      <root>
        <mxCell id="0" />
        <mxCell id="1" parent="0" />
        <mxCell id="EzSESSrQrR8SRDhSGEhN-12" value="&lt;div&gt;&lt;b&gt;&amp;lt;&amp;lt;Repositorio&amp;gt;&amp;gt;&lt;/b&gt;&lt;br&gt;&lt;/div&gt;&lt;b&gt;Redis Streams&lt;/b&gt;" style="shape=umlLifeline;perimeter=lifelinePerimeter;whiteSpace=wrap;html=1;container=1;dropTarget=0;collapsible=0;recursiveResize=0;outlineConnect=0;portConstraint=eastwest;newEdgeStyle={&quot;edgeStyle&quot;:&quot;elbowEdgeStyle&quot;,&quot;elbow&quot;:&quot;vertical&quot;,&quot;curved&quot;:0,&quot;rounded&quot;:0};align=center;fillColor=#f8cecc;strokeColor=#b85450;" parent="1" vertex="1">
          <mxGeometry x="1523" y="360" width="160" height="3120" as="geometry" />
        </mxCell>
        <mxCell id="EzSESSrQrR8SRDhSGEhN-7" value="&lt;div&gt;&lt;b&gt;&amp;lt;&amp;lt;Componente&amp;gt;&amp;gt;&lt;/b&gt;&lt;br&gt;&lt;/div&gt;&lt;b&gt;Launcher PLARD&lt;/b&gt;" style="shape=umlLifeline;perimeter=lifelinePerimeter;whiteSpace=wrap;html=1;container=1;dropTarget=0;collapsible=0;recursiveResize=0;outlineConnect=0;portConstraint=eastwest;newEdgeStyle={&quot;edgeStyle&quot;:&quot;elbowEdgeStyle&quot;,&quot;elbow&quot;:&quot;vertical&quot;,&quot;curved&quot;:0,&quot;rounded&quot;:0};align=center;fillColor=#f8cecc;strokeColor=#b85450;" parent="1" vertex="1">
          <mxGeometry x="803" y="360" width="160" height="3120" as="geometry" />
        </mxCell>
        <mxCell id="UOhI1Jb9BPqGJdpc2Sex-45" value="&lt;div style=&quot;&quot;&gt;&amp;lt;Queque&amp;gt;&amp;gt;&lt;/div&gt;&lt;div style=&quot;&quot;&gt;&lt;span style=&quot;background-color: transparent; color: light-dark(rgb(0, 0, 0), rgb(255, 255, 255));&quot;&gt;MQ 390&lt;/span&gt;&lt;/div&gt;" style="shape=umlLifeline;perimeter=lifelinePerimeter;whiteSpace=wrap;html=1;container=1;dropTarget=0;collapsible=0;recursiveResize=0;outlineConnect=0;portConstraint=eastwest;newEdgeStyle={&quot;edgeStyle&quot;:&quot;elbowEdgeStyle&quot;,&quot;elbow&quot;:&quot;vertical&quot;,&quot;curved&quot;:0,&quot;rounded&quot;:0};align=center;fontStyle=1;fillColor=#f8cecc;strokeColor=#b85450;" parent="1" vertex="1">
          <mxGeometry x="2245" y="360" width="160" height="3120" as="geometry" />
        </mxCell>
        <mxCell id="UOhI1Jb9BPqGJdpc2Sex-1" value="&lt;div&gt;&lt;b&gt;&amp;lt;&amp;lt;Repositorio&amp;gt;&amp;gt;&lt;/b&gt;&lt;b&gt;&lt;br&gt;&lt;/b&gt;&lt;/div&gt;&lt;b&gt;Kafka&lt;/b&gt;" style="shape=umlLifeline;perimeter=lifelinePerimeter;whiteSpace=wrap;html=1;container=1;dropTarget=0;collapsible=0;recursiveResize=0;outlineConnect=0;portConstraint=eastwest;newEdgeStyle={&quot;edgeStyle&quot;:&quot;elbowEdgeStyle&quot;,&quot;elbow&quot;:&quot;vertical&quot;,&quot;curved&quot;:0,&quot;rounded&quot;:0};align=center;fillColor=#f8cecc;strokeColor=#b85450;" parent="1" vertex="1">
          <mxGeometry x="2004" y="359" width="160" height="3121" as="geometry" />
        </mxCell>
        <mxCell id="Bnk67_aWibF8yN_9XxKm-28" value="&lt;div&gt;&lt;b&gt;&amp;lt;&amp;lt;Queque&amp;gt;&amp;gt;&amp;nbsp;&lt;/b&gt;&lt;br&gt;&lt;/div&gt;&lt;b&gt;MQ Canal&lt;/b&gt;" style="shape=umlLifeline;perimeter=lifelinePerimeter;whiteSpace=wrap;html=1;container=1;dropTarget=0;collapsible=0;recursiveResize=0;outlineConnect=0;portConstraint=eastwest;newEdgeStyle={&quot;edgeStyle&quot;:&quot;elbowEdgeStyle&quot;,&quot;elbow&quot;:&quot;vertical&quot;,&quot;curved&quot;:0,&quot;rounded&quot;:0};align=center;fillColor=#f8cecc;strokeColor=#b85450;" parent="1" vertex="1">
          <mxGeometry x="562" y="359" width="161" height="3121" as="geometry" />
        </mxCell>
        <mxCell id="Bnk67_aWibF8yN_9XxKm-1" value="&lt;font&gt;&lt;span style=&quot;text-align: left;&quot;&gt;MODELO FUNCIONAL DE SECUENCIA -&amp;nbsp;&lt;/span&gt;&lt;span style=&quot;color: light-dark(rgb(0, 0, 0), rgb(0, 0, 0)); text-align: left;&quot;&gt;PLARD&amp;nbsp;&lt;/span&gt;&lt;span style=&quot;text-align: left;&quot;&gt;&lt;font style=&quot;color: rgb(0, 0, 0);&quot;&gt;LYNX&lt;/font&gt;&lt;/span&gt;&lt;span style=&quot;text-align: left;&quot;&gt;&lt;font style=&quot;color: rgb(0, 0, 0);&quot;&gt;&amp;nbsp;-&amp;nbsp;&lt;/font&gt;&lt;/span&gt;&lt;font style=&quot;color: rgb(0, 0, 0);&quot;&gt;LMV2&lt;/font&gt;&lt;/font&gt;" style="rounded=0;whiteSpace=wrap;html=1;align=center;fontSize=16;fontStyle=1" parent="1" vertex="1">
          <mxGeometry x="5" y="202" width="3041" height="79" as="geometry" />
        </mxCell>
        <mxCell id="Bnk67_aWibF8yN_9XxKm-202" value="&lt;img alt=&quot;&quot; src=&quot;data:image/png;base64,iVBORw0KGgoAAAANSUhEUgAAAOgAAABXCAYAAAAONQnYAAAAAXNSR0IArs4c6QAAAARnQU1BAACxjwv8YQUAAAAJcEhZcwAAFxEAABcRAcom8z8AACX3SURBVHhe7Z0JmBTVtcdPL9N797BIFEWFqIiAskgU0IggGiMvbhF5aDQmrnFHBBVRjGwSQEUNboDGGBeeu2ERVBCVXYFhBGbt6a7uWnudGTZR6v1PTzEOAwPTQ4+A1P/7zlfLPXWreub++pxbdes2mTJlypQpU6ZMmTJlypQpU6ZMmTJlypQpU6ZMmTJlypQpU6ZMmTJlqokqpEKH1lrz89LYZcpU47WI+tkjdHlrJW9wd9l2zcCY/U9nB+nPLqPYVHayhNzasUGvcH4ooFwUDqhDQ375CSxfLW4h9jN8TJnat3Qia4L+51zZdtk/ZPvlMyT7Ve/K9qvXxB3XKJrjmk9C7r8ea7iaykLlPvG8cL48N+xXhEhAVYSAmhQCmi600PTyFsr1hpspU/tWMV0cSNove3tb3mA9lXeVnswboicdQ/Wtjj/riuPabyOuIccbrqayUIU3ckesRVrX8lO6lB/XRZiUn9RD+cqOsoB8reFmytS+FaberZL2yxdsB6BS3hW6DEhlxxA95fgTltesFNzXtjNcTWWhoC9yWzRf1dlC+RJM1iP5MT2cr243ATXVaIXo3JYp++VztgBME9DcyQTUVE5kAto8MgHNocJErXYSOY3NI0omoM0jE9DcyKIRdUoRvRIjegTrfmP/ESMT0ObRoQCoTrqlhOLHl5PYr5SUK8spenMpSSNLKPo7w+XQVoioZZzo/R/xWdJE25JEY3Uij1F8RMgEtHl0MAEtoIKjyylyaTlJU2ELg6SUV5CaCpG2TaSkXkryDMP10JZE5E0QPQE4t+wApAB0G6Lok9j/K8PlFy8T0OZRuU+4+ecGtJCiJ4QpdiPsgyDJ8Shg1GiLrlC1HqW0HiRNj1AyFSR1snHIoa8oIqaK9BaRdPP3NZDuBKQzKomOMlx+VhUSOYrJ1yZJ+R0k8nZVKb9nglr8VqWjB6l0zCUqHTdIoXa/i1GHs2TqeEaSOnYoo1/nG4dnreYENEzD3FHXAydIeaO7iPZxvWTn+Askx7hBomPCJYJj4qCoc8rvZPvU3pG8p7qLjmmdo64XT9BaT/JzamZU0WjxMWvpNa/qmdc24pjTUfDOPUN0L+gV8i4cKHgWDBI8n11SY58PCjm/uEjwL+8d8XzdI0iLWhhV7FeraXVekbvoONFX3DnqKekZ8hah7tJBFbAST/BiwS30rvCJncu8ZUeHvMI9kXxl588BaOa6SBoUInVeiGJbGEoVUCK1rS4lcR1sZhlFH0I0vXsjRa8JkdTFOPTwUJDIBSiHA84ER1JE1B8B7CyA29ZwaRYhnbag/9syRo7TFHJcmbQ67k9Y3FNiFu+HmiWwVrO0KNIsrUtVy1EhzXqMpFmPhbWTFGt7UbF2KFetp5Ro1o7fqrZOryfsXR9Sbd1/L1PXo43qG6VcA6rRCL9oH9VLcT5yu+p49J+i49Gvo67HiqOux8uirrGRqGucHHVNlKKuSbApYsT9ZDDqfrok6p5WFHE9u0JxPz9T9bw0OuT65/WC5/luwfxX9gqQTrNtQc/sYyT3e2eJrnevlz0fjZa9/50e8Xz8ueCdsyHsnVsc9s4vE3wLImHfAlnwfSYJvs9hi6Wwd0lU8H1VEfZ9XSx4ll1iVLlXLaJF9gpfYeewf+NfooHiyYK3aHHIt6m4wl9UGvKXRcL+MinsL5dC/qAY8oeCwfxQcUVA+CIciH4dzpd+EABmcwJaSOFWxRQZgzRWZihV2oxIqcbKSX4TgF5XSsIpG2nj4X9vZTaRDenuHTCNIynAQXpAb8NONVxyLpnoaHwZPFtNlpVxylMSFtePKYtHr7T49CpLPqwVrA22f6WnrW1h7WAnwDrATtIrrR1hnfSUrbMet3XdmbB1E+LW7h+K1h7DZGevXxun2adyBWgh3e6THCMGq46Rr2jOh9cprtFbY64xetw1Vk+4JmA5QY+5n4BNgk3WNfdTsGlYf06Pu6fDntfjnhd1wKnLnpd2iu6X0gnXa99G3bPGLaIx9pqz/KRyx79PVT3vvR7zfFQY9bxXKXk/2ql45+iad76u+T7NmOpbpCu+xYZ9CfsathS2XE/4v9GlwAo95P1qiFFlfVkirvV9BV/BP8RA8fKof1OVHCjRlUCFrgbCWIZ1OSDAIqhHzJgckHWlhZaxSAZK0bDmATREm48FmC/AdnDURFq7HWC+i0h5dZCSjc4MDhvxuFSF6IYYuqcM6WYY1ucB0k6GS07F9eKLIKSTVa8kh560uPQEAI0BUA2AapaWsKNgbXREUNhxsONh7XXV+mvYKbBT9ZjtNAZUT9u66VW2M/WE7cztMduZSzQ6+9LZNNhmnG6vygWgSt493SXH8JdVx4hYwjVKT7oe0VXXaF3GUnI9qouuv8Me10X3ONgE2BN6FJBG3VNhT8OmwZ7Ro57ndMnzPAMKUGfp27xv6RHPzBU6vbLHgP2g8/X+iuedZLV3nq54P9YBqC7Cot7/6oJvDmwu7BPYQsM+hy2GfQH7Upf9y/WIf1la8C/7vVFlrYL5a1qEvOvviXrXF0v+TboWKAOAxXoksEkXsAxnrARWBivXQ4C2xkIAUQCEEVi0WQEtoLKjS0l6LUxxtNGtgFOJlZH04Foq/eXfPwE41wCciu0/Qfq5RHS2UZwzcXRGxC7ZAkCR5gJMF8wDIGsATQDQJABNAdAUAE0hgqYQQZMANA5ANQNQFYCqti6wM2A99CQgrbadBVB7C6K9z/0SXeg1TrmHDhRQ1XHvoLhz+IqEc4SecD4IKB8AjA/CRsFGwx7Fvsd1xTUOEXMCbBJssq66n4Q9rSvuZ3UZtgvQqGc67AXYS3rS+5oueGZ8uTdAw67/9BM9/6do3g/1iPd92AcwXv9YjwBOEXBKiKIyomiNLYF9BfsatkxP+tegfEVJifez3fpjUdfqE6Legumif/1mLVCkR/0bAOF3MF6yFQHSEj0KMEUAKSGSioFoxqKwCIAUAGdzAlpMYhtEyplhiukyVeoVpFYA1r+MoTFWw+WXL6Sfl6MfuokhZcP6ylxDyoCi31u8D0B/SFhabUEUTSGCauiDyoig8bi1fWXM2mFHGilulfU0gNh5N0BVW09YL73K3ldP2PtUadbetxqn3EMHAqhsu/0C1XF3SbVzpK4679clmOgaWQuoAjgTSHFjgBOAfi+7xqdF13gNfVAl4vpHPOKamhRd06oB6fcNAzpzSUOASp535L0DOm+n6Jv/fcS3sFrwfpIMexdq3AcN+xYpgndxXPAtSWr+Vdtk36pPiml5wKiSYq2WB0TvupkKoGQL+wtg62sB5Qiq5iPFzQ9hvfyHiD9YhX5oHNFTrghUaGF/OB0NiNujADKa6Xs2D6BIZe8TKPFjDGktQA0D2KuMoiNLAGgAwFyxDYBuhSHarUQ0vdAoPmA1BGjK4gegATlOLR+LU+BWjVpfF6djBmvU9nKVjh2i0gk3Is0dGbecMiNpPXVFzNZpWyVSXK0eoIr9bEB6LlLgvmWa7ZzzjdPupqYCKuXd1EV03Lm8ElDKzmGA877dAI1l0ttHdqiux1ZKrr+/gCg6POIc+xfJPXFw2DHxCsk1+eqoa8q1Uee0myTns49HnM9qSgbOAwNU8c1D9Jy3TPTOuy/qWXBT2Dv/WtH36VUh9+eXBd2fXRnxfj6kwrvkT2Hfktsj/pXoAszOdAF00m0R37ePSIH1O2Q/gPSv3Q1QKRM1S7As3RDxl/8n5Ct5OOwruykcKP3foK/0ipAvNDjkD90Q8gv3IsV9IuSPruQbROEMqLkDtIQifUKklXNaGyK1EoDebBQdmQKQZ8FWMqBGJC0CWJcbxQekhgDdDEBjFv+3q6ntPgdNKNTGF6OTO2vWjiM1a+fSSgAaqweoau+jV9vP0zX7uXNidFZttNilpgBaSIMdkuNvL6UBpuK8F2Cy1QAqIcWNM5zOUQLS20fkvJGnR2nMfj7HP46JOp8p4ptEBwpoEv1NyffJ04Zbo1XhXD5A8K6Oa5zGZuD8CVAFfU7BvxH91aLnBX9x74L8gpbGYQ0qCFD5EUskh49ZFlHQVU7S63ynltPbMlKeX0pht1F85Aog9YJ9xZDyzSNE0nKF6IDTiv0BupaObrDvWFf8uEaiLv3j1q7LqwGnBlMMQBUAmkAUVey/3Spb+w01DqlVUwCV7bf0UR23y6kMmHfXART9UNfDgPahCsHx0FX7u0G1SzGaehwALc4VoEqWgBbSbJ/gW/1GHJFSQN+0LqAy0tpIYKOCFPfOKEUbPcqsOQYqlJE8EH3NJA88KCNpY5C0Zrl5eVgKfdIzAOaCaiOSptBGVKIbxxA1uWO+P0A3Uuusnl8p9u5949YewWqGsw6gqv0cpLrnY/38t9fWu2HUFEDVvNsmpQGm4rxrN0Djzgd1xfGAEHU8cIXh2ihFaMrxuQV0wTS4NHqwQ8S1ok/Ut1pRMxHz21pAo0h1xcCGbYJ/wzCkwFn9n3M91I/Pj+g5XaJKHg2kV5A82igytUsC0SlIcd+pxN+LBzRgPQZIb0IEa1SkqK9cA8rSrN1Gpm09d8Rtv6kFVAGglQA0bhsQVGlAT8M1o2wBFdw3tVMdt62qdt4DKO+sBVR2DtdjzgdQx4jHDddG62ADKnhXDdP86/SI/5vdANWQ2oZ8hfPX0JqsnynmGtBiEtqh77k6RTt4IELpJhLOMIpM1VWE6HiAOZMHMhjproJ0d0SYKOu+QHMAGqZux8WsPQsr6wGaAqAJe//qsO283aJbtoCGbTderDpu3RrLwPkToAnnSETUEd9F6L6OhmujdTAB5bRV9K1+Kx4oBJSrawEV/YUAtgDRc/11NZ7ZKdeABkk6H/1OrYp+1AWKvTGbZpszAzYkQNoacM0AXD8ag+yrAe3jPK7XcGmUmgNQlmrp+QwDqtp71wIas/cDoAN2Stb+Iwy3jLIFVLTfeGvSeTtgvH03QKucD+mxvBHTm/Is7mACKrq+PjHiXbFRy6S3PwGqcd/TX1BYcdSGJg33zDWg6HPeIVDihyildKS6Dxi7TTWkNCBFevscImgGUqS9WwDbTUZxo9RsgFp7DEkAUK0OoKr9PH2L/UI9aRvIjbdW2QDK03KKeTc9zYDKdQBVnMN0zXn/Tskx/G7DNSsdTEBD7hW95Ez/c109QIsA6PolhZ2bNodtjgG1lJP6bJK+18MUry6myB+M/ab2pSBRC0D6BCBL8DulVUQreZ9RvF81F6CyrccF3AetC6gCQLcD0CrbwBfhUtt4swE0RtcGFPvNc9IAsy6g8Uz/c3il6Bixz4HnDemgprjeZRcixU3KmX5nDaACYJX9G7AseFlv4uicXALKb6sIFH+9mvTM62JFJDbp73xEivueAG22DkDRL42gP3qSUbRfNVsEtff8rWbrtQegWwFoyjZwRt3HH9kAGqWhR2mOW1ZUAkzR+bd6gI6IKa77zjVcs9LBBFTyrPgf0beqUs48XqkBFKkt90F3Rn2FDxpuWSuXgM6lYqdAyTeqaCf6n4k0v1pmFJnan9D3vBpp7iaOoAC0CFG00YOVmwtQxX7mOTxQoT6g2wBo2nbhy3X7idkBegsAvXV1fUATzvsZUC3iuq+v4ZqVDiagEffSPzQEaMT/3W799WyU2wiq54mURgStAbTUjKCNk0w0FIBJ3Afl4YAA9El+I8Yo3q+aL4L26hfbC6Cc4qZtA18w3DLKNoIqjltXMaDSboAO5z5oLHoYRtBQA4BKmeF+BeMNt6yVS0DHkG4NkvZyJf2ghyhWZQK6H/G7o2miGwCXzI9aEDX5Je//ixEdZ7g0Ss3YB700vgeg/fQt9oF6wnbBU4ZbRtn2QeW8m+dxH1Sq1wfVnMNTUef9FxmuWelg90El3+pE/T6o6ucRROvf4zG6hmtWyvFNIiql8Ej0P3dGKPFDkMS/GbtN1RcipEMluhfRMvUDNgEYD1iYiX1Z345vthTX2v2hVL3HLHH7+XrMPuDHqLX/XYZbRtkAyn1X0XbzU/Xv4qrOYbDhP0Sdw5o0cPtgAiraV/QSfd8oamDPu7hRf+FKpU2hz3DNSrkGtJxCF4UplkxnnoPGZ+0a5G+qjlYTeRAlRwGqSoYTUXMHIJsWbeL8Rc0BaJBOdGnWHgurAGj9gQpJe/+0aBuw2wvK2QDKkvNuuSUBOOs+B5WN56Ba3sgn4dIoMOrqYAK60bmovehducdz0Jo3WtZrFd5vLjBcs1KuAS2m0ElBUr9L16S5a3jbKDLF2kjkTxBNBZSZGQARQXkGwPEKUZO+YVnNASjPS5Sw9Uwm6wFaae+vx239N4g0oLPhmlG2gIq2Gy9RHLdt1zJw1gDKAxVSmXG4968S3CN382+MDiagq2m1B33QN+P+3UcSRTjNrXkW+iLPS2S4N1q5BpQftQRJeo3nHQqR9mMFKXcaRaaKiQIMJ6DcyZETyy0cSbH/gGajzzWgGp3qT1i7v7+V+5+wXYDyYHkeiyvbzp+p05l5hntG2QIq0Z/bq47b1lbVG4vLL2yrzhE7ZPvIBl8Ob0gCTWt3sABlyd5v7+EUt/5YXMm/Efu+U4L+gqxvyuQaUFY5qUPKSd6mUJVeSuKKDVTRrJPaHRbiOXLRx5yOyPkj3xDCMgVYR6EvultDb4r2B2ghtWl0dA5Stxaq5fSJSVv3HQnbmXu8bqbaf1slU7893mPNFlB+cI8091kGVK4DKL/NkuQo6nxgXcg+qpfh3iiV0dNHA9CcvQ+aLaCCe3lvwbdKUfnl7DqA8utm/C5oJLDxCzGwMavPVO4Tbs01oDwRGACdy++DVpC6A5COaepNrF+EACYPjP83v2Jm3BBSkdLevogo65Rnb9oPoN8sQn/ScG1Q/LqbnNfxDM3WZWbMdsb2ZAMvbKvWc9/Z29xE2QLKEmw399ccd8aSGTB/AlTJvA86ShedDy2Luh46x3DfpxR6zhfJm3KD6HomrnqePyiAhmmpW/Cuejnh34CIufv7oAJSX54wTPBv+jbs/+6voq+4jXHYPlXhC98o5hhQVgmJF1eQFuMZFQCpAmAvNYqOLAHEkwFn5tUyI62NACh+s6HR//j9qSFAK2sADWrU4lqFWvaV6OgOFXRCW4VOPCYIi1G741Q6sYdmO+lyzdJpnGbttDZh66onbd0AZvcMoLsiaGXmDu45ZQnqc55x2t3UFEDDdJVbcdz+70rnMERRTnV3vbB9f2bSsLhrtB51jlofc4+5W8gbc0apd8yvIv4JrYtbjQmk8ie2zGw7JnQU3VP/KLqfmiW6pikSTxyWgzmJmgIoq9S9olfU921RDGltXUB5RgVEUETSMsC7KSUEit8PBzbdHvGWXrDJV9BpY+uNxwY9wWMKYRs8FW2D+cH2FfkVPUP+yDORfAVQKjkFlPui6H9OlSi9s2ZyanklImlW0f2wF9LaLgDyM57Rz0hrSwFTTqY5qauGAOVJw2KW/B/jlhZpzdI6mLIc9WXK0nZuynLsf1OW42HtP41Z2heq1lOSMWunnWlbZz22l0nD0va+gLPvZtXat8HHH00BlBXNu7mn7LxjA89JVBdQnpNIcj0ESB/VFdcj2yTnYwWqc+yHsnPs2xHX2JdF94T/qK7JH6iuKcsAaFIFmJr7n/rBBpQV8a0ZLPkKYjF/0W6A7po0jOclkgNBXQyUbo34y6IRf3Cl5BfmR32R/2bML80T8+Ul4fxoUTgQrWyuScPWkdAO0fNdmdK6mHm7Rf06SHIfo/iXLZ45AZFzMc+aYKS1xYimFxvFOdV+ANXTlpaZias3W36lb7a2hbWDnQDroFdZT9JT1o56fC/TbsYAKE+7GbOfvVmy9X68/iwKddVUQFmC9c4/qc57Y2mktvzCdv1Z/VRjVr8kT1oNU9w8efUkPemeqifcT2cmrpZhqvs5AMpwHlxA+W5t1LNulOhbn4770ffM9El/ApSN58UVA+UANaxrAVGPBSRdDcgwBabpKiBU8jWkts03qx+rhKQu5SR9JVNVZupNRNJvsW9IIem/3PdEAWYfALOUh+0Z05oUwJoFTta+AN3bxNUx63GwPSeuVgAo+qB6HCluGnCmbWcC3F4lqr3XPWHqvc8XyRsCNNkIQHnGdynv7r9ojvtK084HamZUQIobrTcvruT6O2wsYBwPECfWTlytuJ/S44ieEde0AtH17GdyBs6fAE1kCahwgICyJPrEK/jW3Br1rV8jId1VM7P58YTVSH0zkCK6AtK6E1eHA6Fa44mraywCYzijMInB1KX8ZGZZ4hevN053QEJqe2Y5KQv5HVFOdxFV5TKSJxVTpIfehN+3OaSFtHZADNkDP+NkOBNEyxE5mzT4u7HaF6BxAFplTFwdA6CxOoDGAKgGQGMANGXthGjZBVbTB41Zu0Xjlh4zFPsZjRoXC4Bbpe2Xf6rn/a+eBpyVeUP0Ssc1+veOG3TVce26iGvI8YZrg4ra7rpIzrtvjuIYsSXlejgzs7xWM+0mbAzs8QygknscoHwC0XOqnkLkBKA7oq6nPy9zPfnbhHv63du9/0LUnAGbBXtV3+57G+DNWhGmqXt8yVQ43xigeN5LbfZ+ose9c2HzAPQnOOZLPeZdMB0uB9RASzyreoZ8Bc8JvsIy9EF/UAGilh/MzIsrAkwhUAorhwXrABoGgDyrfEQX0fdU8hPwT+lKi6QuA04Z6wBUKffJlxmnOWCVU+TUMpL+BTi3xmkbz7aAaKqsKyPlsQqKnhOi0H5nIDzkhch5Cb+RwmAag94/BZzdjOJmU0OAxjI3iQKbK6llUZxab65GiluNFLcKKW4VUtwqpLjVSHHjADRh7SRXWzsXxq1dFiQsXSfJdPrAQurc6Mczq+nM/Crblc9/bx9cmLL/cW3aPmRt2jF07WbHdYUJx3VvBj2DjzFc96kKuretaL//b4ii7yddo79TXA8nE67HACunuONhE5HaTkIUnfgDAC2PuZ9cJLqmjq5wPtOBj4+7Xhiy1fNKQdwzY13cO2tt3Pvq2mrP69+p3tdeLaZpezxvDtvf+k3c88HitGfu+rh3Dvznro155q+r9i0qTPk+49fEDjiCLKWl7qB7de+Ib8OjEX/R+0qgdJ0aCJZF/aXbVERJDdFRhSmIkApSWAVQcoqLfqgeCchJOT9epAZSBZGAujySL78mBGKTwgF16AZ/pLVxipyoABAicg7jEUaC8VMQIVJ55oUQ+qZvV5AysoTE6zaScH6QIt2LKJbVmPGDJp3IDhivriIq48i5BYYoOlclynpenaaoIUCragAt1Ch/gEatb6ukNlMqLW1hx02utBwP6zC52nLyFIVOelykU69K0am9ItTl+KbMMMgD/7fSoF8n867omci7olsi7+qMRfOu7qk6ruuo0y1ZPe8V6a42mn1EL8k56gbV/ejkmHvslJh7PJbjJyfcT0yRXZNGRZz/GCg5n2qPP3ctRJX04lHVnle6K56Z3XaZ6pnVUwm8dvLe0jVORePeD7tEPB/0UDwfw39+xlTPRz1j7k9z3gCLqbiN4FnfTfCWDgh5N90XDZRPVQPRyXJAmCwFpFpTWqhTAOiEcL70V6Vl/JxofrJn0BftpLXWmvSzio2XbgGkZwDGcYim64Kk7IzRZl2D8SyAiKqbwxSrECldiIj7mHHQoa0wUas00UJ+2ZojJ6Lo+yLRiUZxs6shQI3noKsRCTMdflyfrQFrxn/4gYsH19fY7Izt7VfKDlfxAIG922xeNmkWhlyIr4F//5N/6h5p7vuwoECJSp7omgc48EvfKPsPPA/ptpMRDzhAejuokmgN4HwP0bRRP9mXK+0H0Ca/zWLKFGsDbWhdQlL/IGnXlJM4upQiz5aSPBOA3gCQD31Adwmg9AKgJxibP5tMQE39XGIggxR08TSjSNcPaAz5ESMTUFOmDmGZgJoydQjrlw5oGVE+PqP5JWPq8NQvHVB8vltjRDkZNWPK1M+uXYBuBaBxABoHoCkAuhOAahb/hsMd0DTR81VES/lxlrHLlKnDR4gup6WIBB2AbgWgmwFo3OLZvs3iD8coMEdq5O+DHqiWErn5uaqxecDi1JZn2OfoCUC34UuoUQ/GVxPlSUTtZaJf49g9fmy4KeLPdaAzX+xLXD9PXo7lQXv2aaqZxDMBJoimJMnyrxjlTYU9ESfPTUny9JTI2eFAfnu0seJhjoh0EwHV0cauAxbqvBifbRhPpgY451USpfhFBKN4r0J5X/i9gr9HEeAsxXFzkWH8wShukhhM1DEc19JsPxOPL6Br8Pcbh+vN+icKTR3iYgD525cjh7HrZxfDuZWoMISolauZIgDZdai3BKCdBbsQ69uw752GojQad3tkEt9iGYLfCzjmBWy/A2ivNlxqVUhINfZSD0ewufUiJafWgHMF6nvZ2LWbeJgjjtvr61nYb9/X/wXllleIXJuJZgDStQrRbmOWUb7XY/lvbHwGM+Ka2r8Az2NoYBoizasAYgYAGYPG1p3nYgIkd8J+Z7hmGhei3JVo8DeifI/0G3X0MqA8rboGtvkMCbanAr4Elvcgqu4xIATnvxD1bgdME3mbGy+uwccN2di24Xz9cfwkXCOyDZqO67oF1oq/4LB9Pep/BmX/xr6pWA7iY3myN1zTEpSvxvJ29uPUWyRqg/pvwPZLRn2Tca39+Fw4/kzYg9j3MspewfJh+NfOhIjrPAq+f0LZc1yOz7kJ/ku5zsz0M0QXYP9TON+/sBzOKTsfh3rawe6B78uwGfi7HxkvWJs6MKGxPILGshUNahka3hw0oiAa+3eAZSj2z8e+VfDJvLLE45TR6IpQ/iZgrX1HE/uOh/8E+PK0MF8yBPAZzzNSoI7rcDz3KSvhtwMN/GuU3Vg3fYfPKbAS7N+AOi4FXLVv43CkQt03oTyK4wtQz1z4lKPONPafh/UTcM4klhtw/MdYrkeZCt9bcB0u+H+K9QTsC9gM+P4Gfq/Bj30WwT6HbUH9szliYvkyrpFnbfwSPp/weeG/DNaevwywj38XNobyJXwszhWDfcGfGWWXwb8Cy69Q9gH8RKy/y31yrF+Jeitx/vVY/wjHX2h8RFOmGhai19gtABKN7zdoNBxxBnDDQkN7C43rLpQnsJ35VW6sD+VtRJ8/Zg6GdhK1RsN7A/t3vaq3A/XcVYH+NfavYcP2QDTYKAOLdJp/KiMNu3dXhGThXH/AvmU4rwpbDP+buZy/FFBHMY5dCCA7ckSG76Ow7YhWA3G+k3HNaWz/maMulv1wvWEGxIigi3H+N1F2DHxbYfsW+OyAzwiOevyL6dj/Kc49h/usONfbiIrrEPm6GmD9FX8fhnAIjr0Ufklc33j4tdlIdCyu6zXsW1qC68Bx78G+QpbQCT6tcd7RKNewfRF8BuOzC6jjcnQnWuKLZ4+X0E2Z2kNoOOPQANehcdbOnICGNR8NqwyN/HQ0tK/QoN9BI/Ogsb7J22hktY9/0HAvgm81TMdxOi/hV8qNFMddhvJK7P8Sx6SxP+PDkKJM4H6vUU1GnA7C/1bYUlxXFfzvA0T9GCgcN8xw45tr9+DatqDOCwDeySiLwyczux2Obcnng81nSODzBfz5N1Ezgt8klO3k6+Nt7rfiPB/hfB8zoDjmLUC2nH9Fnctx/Kn44uGofCeOy/wWLOqofeMJf7vMoySB6GwcuwLlxbi2WfCZhfWFqIsj/VAAfRV8y3G9TfqBKVNHqAxA1yIy7XqH0oKGtQQNshiNLB92FxpXBRrqSDS2jWh89xt+GaH8POxPMnRowPw7NTq2GcApqKcF6p/Pczvh+NpynogN6yVo1HudToUfs+Cc/IbRKqxfgWvZjLruM4r5C+Su+oCi/Eouw3FHYT/3O/nu8VFY8nrtTSL4TcD2ToCf6VdyWov6P6gD6JtYX8kRl8vh2xnXW4BruQP1jkWdSSxP5TIWPut0+C8D0D2wvgT18wRzj+G4MbjGv2N5L9Jf/uK5Bn/nIMrONw41ZWr/QuOaiIbDfcfzAVl7bljYx88ueV6fTFTDeiHKtqIBrkND2+03QdYSedF4J/MxPCMFw8mwonHGEDmGoEG/hXQu8wtwOE8GTiwFHHMt9y+5Dk5jAcYNiL6/wfFtcQ3cXwvjXF/gi6Mr1jkyrUOdfXHcCVh/Ff4M+UCc4xTs3wzfwVwXzvMr7FuJfZ/jM/l5Cd8C1Nsd/seh7EYc/z3sGVgH7OsNnzKcYz4Dinre5c8Jv8ys7Sjris9Viv138I0q1M8Tl7+J8o6wnjhuJWwVp7tYPsvlqPdm+JwI64b1KzilxTVcj7+LhGsawPWaMtUooUHdgwYowBYAno+xzTdr/s0NzHDhqPM4+pp8w+eFvT2bRcMOoCHzXdXFaNwR1FHJMKIx8k2SGAOLfQk04DLU9QZ8d/sBJwYNPmtwDV/D5mG9AL7fwDfT10X5H3FMMVLNpaj/Xez/EtdSBrDPg297lJXgXJlnpkhdOWrOwfZ7fK1Y3oFjKhDFF+P6pqFf2RH+0/BlUIpzzcG+D3GNm1D3DE53cZ0vYX3erufCOMdp2F6C67mRH8vg3BO5PuzjG2jvYv9ybH+0BtkCAO6C6+LrX4+/5Qewhdh+D4AyvFfgmFVmimsqK3Fqi8ZzHhrmQBg/7jiX70gaxZnnjmiIY2ApjiDG7r0KMByLBtkHAAyFPYntV9AgZ2J9LI6/FI27O/btMXwRkLTEec9BQ/8frA9BHb/nCGUUsyyo43SU882W/ljvCr+z+Di+2YI0uA+DyY6csuKc3dift420tTeguQjgnmXsCxjn+x2Xoc7TAU8nBhr7O2F/9103sLjvDZB7AuhjeRt/Lzfq7svXwteA405BeTdcR+a5J0de1NGP/5Z8TlxLd5RxvW04Q8DfIZ/9TJk6YKHhX4hG/T7AErB8kR9bGEX71a4H8my7UllTpkzlUIh2HK34ud+9u/pkpkyZOkSEyJcZCG5smjJlypQpU6ZMmTJlypQpU6ZMmTJlypQpU6ZMmTJlypQpU6ZMmTJlypQpU6ZMmTJlypQpU6ZM/VJF9P/4VLlQmJjGNAAAAABJRU5ErkJggg==&quot; style=&quot;font-size: 10px;&quot;&gt;" style="text;html=1;strokeColor=none;fillColor=none;align=center;verticalAlign=middle;whiteSpace=wrap;rounded=0;fontSize=10;" parent="1" vertex="1">
          <mxGeometry x="116" y="239" width="10" height="10" as="geometry" />
        </mxCell>
        <mxCell id="Bnk67_aWibF8yN_9XxKm-9" value="&lt;div style=&quot;text-align: center;&quot;&gt;&lt;span style=&quot;background-color: transparent; color: light-dark(rgb(0, 0, 0), rgb(237, 237, 237)); font-size: 16px; text-align: left;&quot;&gt;PLARD Lynx -&amp;nbsp;&lt;/span&gt;&lt;span style=&quot;background-color: transparent; color: light-dark(rgb(0, 0, 0), rgb(237, 237, 237)); font-size: 16px;&quot;&gt;LMV2 -&amp;nbsp;&lt;/span&gt;&lt;span style=&quot;background-color: transparent; font-size: 16px;&quot;&gt;Registro de Operación Débito&lt;/span&gt;&lt;/div&gt;" style="shape=umlFrame;whiteSpace=wrap;html=1;pointerEvents=0;recursiveResize=0;container=1;collapsible=0;width=600;height=28;fontStyle=1;fontSize=13;strokeColor=#000000;strokeWidth=2;fontColor=#000000;" parent="1" vertex="1">
          <mxGeometry x="6" y="282" width="3040" height="3198" as="geometry" />
        </mxCell>
        <mxCell id="Bnk67_aWibF8yN_9XxKm-22" value="&lt;div&gt;&lt;b&gt;&lt;font style=&quot;color: rgb(0, 0, 0);&quot;&gt;&amp;lt;&amp;lt;Canal&amp;gt;&amp;gt;&lt;/font&gt;&lt;/b&gt;&lt;/div&gt;&lt;div&gt;&lt;b&gt;LYNX&lt;/b&gt;&lt;/div&gt;" style="shape=umlLifeline;perimeter=lifelinePerimeter;whiteSpace=wrap;html=1;container=1;dropTarget=0;collapsible=0;recursiveResize=0;outlineConnect=0;portConstraint=eastwest;newEdgeStyle={&quot;edgeStyle&quot;:&quot;elbowEdgeStyle&quot;,&quot;elbow&quot;:&quot;vertical&quot;,&quot;curved&quot;:0,&quot;rounded&quot;:0};align=center;fillColor=#f8cecc;strokeColor=#b85450;" parent="Bnk67_aWibF8yN_9XxKm-9" vertex="1">
          <mxGeometry x="320" y="77" width="160" height="3113" as="geometry" />
        </mxCell>
        <mxCell id="Bnk67_aWibF8yN_9XxKm-161" value="&lt;b&gt;Analista Santander&lt;/b&gt;" style="shape=umlLifeline;perimeter=lifelinePerimeter;whiteSpace=wrap;html=1;container=1;dropTarget=0;collapsible=0;recursiveResize=0;outlineConnect=0;portConstraint=eastwest;newEdgeStyle={&quot;edgeStyle&quot;:&quot;elbowEdgeStyle&quot;,&quot;elbow&quot;:&quot;vertical&quot;,&quot;curved&quot;:0,&quot;rounded&quot;:0};align=center;fillColor=#f8cecc;strokeColor=#b85450;" parent="Bnk67_aWibF8yN_9XxKm-9" vertex="1">
          <mxGeometry x="80" y="76" width="161" height="3114" as="geometry" />
        </mxCell>
        <mxCell id="ToUPSf5seXOrwuXV1P-5-8" value="&lt;div style=&quot;font-weight: 700;&quot;&gt;&amp;lt;&amp;lt;Componente&amp;gt;&amp;gt;&lt;br&gt;&lt;/div&gt;&lt;b&gt;Card Place Locator (CPL)&lt;/b&gt;" style="shape=umlLifeline;perimeter=lifelinePerimeter;whiteSpace=wrap;html=1;container=1;dropTarget=0;collapsible=0;recursiveResize=0;outlineConnect=0;portConstraint=eastwest;newEdgeStyle={&quot;edgeStyle&quot;:&quot;elbowEdgeStyle&quot;,&quot;elbow&quot;:&quot;vertical&quot;,&quot;curved&quot;:0,&quot;rounded&quot;:0};align=center;size=41;fillColor=#d5e8d4;strokeColor=#82b366;" parent="Bnk67_aWibF8yN_9XxKm-9" vertex="1">
          <mxGeometry x="1039" y="77" width="160" height="3113" as="geometry" />
        </mxCell>
        <mxCell id="eI9l-XEfScTaXbGVceM7-2" value="&lt;b&gt;Analista Santander&lt;/b&gt;&lt;div&gt;Accede a Lynx&lt;/div&gt;" style="text;html=1;align=left;verticalAlign=top;whiteSpace=wrap;rounded=0;fontSize=9;" parent="Bnk67_aWibF8yN_9XxKm-9" vertex="1">
          <mxGeometry x="201" y="201" width="95" height="32" as="geometry" />
        </mxCell>
        <mxCell id="eI9l-XEfScTaXbGVceM7-4" value="&lt;b&gt;Analista Santander&lt;/b&gt;&lt;div&gt;Ingresa a la pantalla de búsqueda de tarjetas del Cliente&lt;br&gt;&lt;/div&gt;" style="text;html=1;align=left;verticalAlign=top;whiteSpace=wrap;rounded=0;fontSize=9;" parent="Bnk67_aWibF8yN_9XxKm-9" vertex="1">
          <mxGeometry x="201" y="254" width="139" height="37" as="geometry" />
        </mxCell>
        <mxCell id="eI9l-XEfScTaXbGVceM7-5" value="" style="html=1;align=left;spacingLeft=2;endArrow=block;rounded=0;edgeStyle=orthogonalEdgeStyle;curved=0;rounded=0;fillColor=#f8cecc;strokeColor=#000000;" parent="Bnk67_aWibF8yN_9XxKm-9" edge="1">
          <mxGeometry x="-0.2922" y="20" relative="1" as="geometry">
            <mxPoint x="165" y="205.02000000000044" as="sourcePoint" />
            <Array as="points">
              <mxPoint x="195" y="205.08000000000038" />
              <mxPoint x="195" y="235.08000000000038" />
            </Array>
            <mxPoint x="165" y="235.08000000000038" as="targetPoint" />
            <mxPoint as="offset" />
          </mxGeometry>
        </mxCell>
        <mxCell id="eI9l-XEfScTaXbGVceM7-7" value="&lt;b&gt;Analista Santander&lt;/b&gt;&lt;div&gt;Ingresa a la opción de Co&lt;span style=&quot;background-color: transparent; color: light-dark(rgb(0, 0, 0), rgb(255, 255, 255));&quot;&gt;nsultar los movimientos&amp;nbsp;&lt;/span&gt;&lt;span style=&quot;background-color: transparent; color: light-dark(rgb(0, 0, 0), rgb(255, 255, 255));&quot;&gt;de una tarjeta de débito&lt;/span&gt;&lt;/div&gt;" style="text;html=1;align=left;verticalAlign=top;whiteSpace=wrap;rounded=0;fontSize=9;" parent="Bnk67_aWibF8yN_9XxKm-9" vertex="1">
          <mxGeometry x="170" y="319" width="210" height="45" as="geometry" />
        </mxCell>
        <mxCell id="eI9l-XEfScTaXbGVceM7-9" value="Front APP&lt;div&gt;&lt;b&gt;LYNX&lt;/b&gt;&lt;br&gt;&lt;div&gt;Solicita consultar los movimientos&amp;nbsp;&lt;span style=&quot;background-color: transparent; color: light-dark(rgb(0, 0, 0), rgb(255, 255, 255));&quot;&gt;de una tarjeta de débito&lt;/span&gt;&lt;/div&gt;&lt;div&gt;[&lt;b&gt;LMPJ&lt;/b&gt;]&lt;/div&gt;&lt;/div&gt;" style="text;html=1;align=left;verticalAlign=top;whiteSpace=wrap;rounded=0;fontSize=9;" parent="Bnk67_aWibF8yN_9XxKm-9" vertex="1">
          <mxGeometry x="410" y="334" width="180" height="64" as="geometry" />
        </mxCell>
        <mxCell id="CMBcmEEe2xLacPRuAHOP-1" value="&lt;div style=&quot;forced-color-adjust: none; color: rgb(0, 0, 0); font-family: Helvetica; font-size: 12px; font-style: normal; font-variant-ligatures: normal; font-variant-caps: normal; font-weight: 400; letter-spacing: normal; orphans: 2; text-align: center; text-indent: 0px; text-transform: none; widows: 2; word-spacing: 0px; -webkit-text-stroke-width: 0px; white-space: normal; text-decoration-thickness: initial; text-decoration-style: initial; text-decoration-color: initial;&quot;&gt;&lt;div style=&quot;&quot;&gt;&lt;span&gt;&lt;b style=&quot;&quot;&gt;&amp;lt;&amp;lt;Plataforma SaaS&amp;gt;&amp;gt;&lt;/b&gt;&lt;br&gt;&lt;/span&gt;&lt;/div&gt;&lt;b&gt;PLARD&lt;/b&gt;&lt;/div&gt;" style="shape=umlLifeline;perimeter=lifelinePerimeter;whiteSpace=wrap;html=1;container=1;dropTarget=0;collapsible=0;recursiveResize=0;outlineConnect=0;portConstraint=eastwest;newEdgeStyle={&quot;edgeStyle&quot;:&quot;elbowEdgeStyle&quot;,&quot;elbow&quot;:&quot;vertical&quot;,&quot;curved&quot;:0,&quot;rounded&quot;:0};align=center;fontStyle=1;fillColor=#f8cecc;strokeColor=#b85450;" vertex="1" parent="Bnk67_aWibF8yN_9XxKm-9">
          <mxGeometry x="2480" y="78" width="160" height="3120" as="geometry" />
        </mxCell>
        <mxCell id="ToUPSf5seXOrwuXV1P-5-10" value="&lt;div&gt;&lt;b&gt;&amp;lt;CaaS Integration Layer&amp;gt;&amp;gt;&lt;/b&gt;&lt;/div&gt;&lt;div&gt;&lt;span data-teams=&quot;true&quot;&gt;device-transaction-inquiry&lt;/span&gt;&lt;/div&gt;" style="shape=umlLifeline;perimeter=lifelinePerimeter;whiteSpace=wrap;html=1;container=1;dropTarget=0;collapsible=0;recursiveResize=0;outlineConnect=0;portConstraint=eastwest;newEdgeStyle={&quot;edgeStyle&quot;:&quot;elbowEdgeStyle&quot;,&quot;elbow&quot;:&quot;vertical&quot;,&quot;curved&quot;:0,&quot;rounded&quot;:0};align=center;fillColor=#f8cecc;strokeColor=#b85450;" parent="1" vertex="1">
          <mxGeometry x="1764" y="359" width="160" height="3121" as="geometry" />
        </mxCell>
        <mxCell id="ToUPSf5seXOrwuXV1P-5-14" value="" style="html=1;points=[[0,0,0,0,5],[0,1,0,0,-5],[1,0,0,0,5],[1,1,0,0,-5]];perimeter=orthogonalPerimeter;outlineConnect=0;targetShapes=umlLifeline;portConstraint=eastwest;newEdgeStyle={&quot;curved&quot;:0,&quot;rounded&quot;:0};" parent="1" vertex="1">
          <mxGeometry x="161" y="480" width="10" height="2480" as="geometry" />
        </mxCell>
        <mxCell id="ToUPSf5seXOrwuXV1P-5-18" value="" style="html=1;points=[[0,0,0,0,5],[0,1,0,0,-5],[1,0,0,0,5],[1,1,0,0,-5]];perimeter=orthogonalPerimeter;outlineConnect=0;targetShapes=umlLifeline;portConstraint=eastwest;newEdgeStyle={&quot;curved&quot;:0,&quot;rounded&quot;:0};" parent="1" vertex="1">
          <mxGeometry x="401" y="630" width="10" height="2230" as="geometry" />
        </mxCell>
        <mxCell id="ToUPSf5seXOrwuXV1P-5-22" value="" style="html=1;points=[[0,0,0,0,5],[0,1,0,0,-5],[1,0,0,0,5],[1,1,0,0,-5]];perimeter=orthogonalPerimeter;outlineConnect=0;targetShapes=umlLifeline;portConstraint=eastwest;newEdgeStyle={&quot;curved&quot;:0,&quot;rounded&quot;:0};" parent="1" vertex="1">
          <mxGeometry x="878" y="710" width="10" height="2070" as="geometry" />
        </mxCell>
        <mxCell id="jyimtzbjUoySw18MVkSd-12" value="" style="html=1;points=[[0,0,0,0,5],[0,1,0,0,-5],[1,0,0,0,5],[1,1,0,0,-5]];perimeter=orthogonalPerimeter;outlineConnect=0;targetShapes=umlLifeline;portConstraint=eastwest;newEdgeStyle={&quot;curved&quot;:0,&quot;rounded&quot;:0};" parent="1" vertex="1">
          <mxGeometry x="1599" y="860" width="10" height="710" as="geometry" />
        </mxCell>
        <mxCell id="EzSESSrQrR8SRDhSGEhN-8" value="" style="html=1;points=[[0,0,0,0,5],[0,1,0,0,-5],[1,0,0,0,5],[1,1,0,0,-5]];perimeter=orthogonalPerimeter;outlineConnect=0;targetShapes=umlLifeline;portConstraint=eastwest;newEdgeStyle={&quot;curved&quot;:0,&quot;rounded&quot;:0};" parent="1" vertex="1">
          <mxGeometry x="638" y="670" width="10" height="2150" as="geometry" />
        </mxCell>
        <mxCell id="EzSESSrQrR8SRDhSGEhN-11" value="&lt;div&gt;&lt;b&gt;&amp;lt;&amp;lt;Componente&amp;gt;&amp;gt;&lt;/b&gt;&lt;b&gt;&lt;br&gt;&lt;/b&gt;&lt;/div&gt;&lt;b&gt;Splitter/Starter&lt;/b&gt;" style="shape=umlLifeline;perimeter=lifelinePerimeter;whiteSpace=wrap;html=1;container=1;dropTarget=0;collapsible=0;recursiveResize=0;outlineConnect=0;portConstraint=eastwest;newEdgeStyle={&quot;edgeStyle&quot;:&quot;elbowEdgeStyle&quot;,&quot;elbow&quot;:&quot;vertical&quot;,&quot;curved&quot;:0,&quot;rounded&quot;:0};align=center;fillColor=#d5e8d4;strokeColor=#82b366;" parent="1" vertex="1">
          <mxGeometry x="1283" y="360" width="160" height="3120" as="geometry" />
        </mxCell>
        <mxCell id="1G6nh8UYInP9JPz63gqY-11" value="" style="html=1;points=[[0,0,0,0,5],[0,1,0,0,-5],[1,0,0,0,5],[1,1,0,0,-5]];perimeter=orthogonalPerimeter;outlineConnect=0;targetShapes=umlLifeline;portConstraint=eastwest;newEdgeStyle={&quot;curved&quot;:0,&quot;rounded&quot;:0};" vertex="1" parent="EzSESSrQrR8SRDhSGEhN-11">
          <mxGeometry x="75" y="483" width="10" height="347" as="geometry" />
        </mxCell>
        <mxCell id="bbofyv_q_nCxZHHzBAdj-51" value="" style="html=1;points=[[0,0,0,0,5],[0,1,0,0,-5],[1,0,0,0,5],[1,1,0,0,-5]];perimeter=orthogonalPerimeter;outlineConnect=0;targetShapes=umlLifeline;portConstraint=eastwest;newEdgeStyle={&quot;curved&quot;:0,&quot;rounded&quot;:0};" parent="1" vertex="1">
          <mxGeometry x="2561" y="920" width="10" height="120" as="geometry" />
        </mxCell>
        <mxCell id="bbofyv_q_nCxZHHzBAdj-60" value="" style="html=1;points=[[0,0,0,0,5],[0,1,0,0,-5],[1,0,0,0,5],[1,1,0,0,-5]];perimeter=orthogonalPerimeter;outlineConnect=0;targetShapes=umlLifeline;portConstraint=eastwest;newEdgeStyle={&quot;curved&quot;:0,&quot;rounded&quot;:0};" parent="1" vertex="1">
          <mxGeometry x="1840" y="880" width="10" height="970" as="geometry" />
        </mxCell>
        <mxCell id="vtx71rYAX6kZKPzqjoek-19" value="alt" style="shape=umlFrame;whiteSpace=wrap;html=1;pointerEvents=0;recursiveResize=0;container=1;collapsible=0;width=80;height=15;" parent="1" vertex="1">
          <mxGeometry x="46" y="1070" width="1754" height="334" as="geometry" />
        </mxCell>
        <mxCell id="vtx71rYAX6kZKPzqjoek-20" value="&lt;font style=&quot;font-size: 12px;&quot;&gt;[Response == 4XX]&lt;/font&gt;" style="text;html=1;rotation=0;" parent="vtx71rYAX6kZKPzqjoek-19" vertex="1">
          <mxGeometry width="90" height="23" relative="1" as="geometry">
            <mxPoint x="3" y="30" as="offset" />
          </mxGeometry>
        </mxCell>
        <mxCell id="vtx71rYAX6kZKPzqjoek-38" value="" style="html=1;points=[[0,0,0,0,5],[0,1,0,0,-5],[1,0,0,0,5],[1,1,0,0,-5]];perimeter=orthogonalPerimeter;outlineConnect=0;targetShapes=umlLifeline;portConstraint=eastwest;newEdgeStyle={&quot;curved&quot;:0,&quot;rounded&quot;:0};" parent="1" vertex="1">
          <mxGeometry x="2079" y="1324" width="10" height="58" as="geometry" />
        </mxCell>
        <mxCell id="vtx71rYAX6kZKPzqjoek-152" value="alt" style="shape=umlFrame;whiteSpace=wrap;html=1;pointerEvents=0;recursiveResize=0;container=1;collapsible=0;width=80;height=15;fillColor=#f8cecc;strokeColor=#b85450;" parent="1" vertex="1">
          <mxGeometry x="26" y="750" width="2970" height="2280" as="geometry" />
        </mxCell>
        <mxCell id="vtx71rYAX6kZKPzqjoek-153" value="&lt;font style=&quot;font-size: 12px;&quot;&gt;[BIN == BIN Plard]&lt;/font&gt;" style="text;html=1;rotation=0;" parent="vtx71rYAX6kZKPzqjoek-152" vertex="1">
          <mxGeometry width="140" height="20" relative="1" as="geometry">
            <mxPoint x="5" y="30" as="offset" />
          </mxGeometry>
        </mxCell>
        <mxCell id="eI9l-XEfScTaXbGVceM7-45" value="Queque&amp;nbsp;&lt;div&gt;&lt;b&gt;MQ Canal&lt;/b&gt;&lt;div&gt;Recibe Msj de Error&lt;/div&gt;&lt;/div&gt;" style="text;html=1;align=left;verticalAlign=top;whiteSpace=wrap;rounded=0;fontSize=9;" parent="vtx71rYAX6kZKPzqjoek-152" vertex="1">
          <mxGeometry x="756" y="429" width="90" height="43" as="geometry" />
        </mxCell>
        <mxCell id="eI9l-XEfScTaXbGVceM7-46" value="Componente&lt;div&gt;&lt;b&gt;Launcher PLARD&lt;/b&gt;&lt;br&gt;&lt;div&gt;Toma Msj de Error de Redis Streams&lt;/div&gt;&lt;/div&gt;" style="text;html=1;align=left;verticalAlign=top;whiteSpace=wrap;rounded=0;fontSize=9;" parent="vtx71rYAX6kZKPzqjoek-152" vertex="1">
          <mxGeometry x="920" y="398" width="151" height="45" as="geometry" />
        </mxCell>
        <mxCell id="eI9l-XEfScTaXbGVceM7-49" value="" style="html=1;align=left;spacingLeft=2;endArrow=block;rounded=0;edgeStyle=orthogonalEdgeStyle;curved=0;rounded=0;fillColor=#f8cecc;strokeColor=#000000;" parent="vtx71rYAX6kZKPzqjoek-152" edge="1">
          <mxGeometry x="-0.2922" y="20" relative="1" as="geometry">
            <mxPoint x="1825" y="452.02000000000044" as="sourcePoint" />
            <Array as="points">
              <mxPoint x="1855" y="452.0800000000004" />
              <mxPoint x="1855" y="482.0800000000004" />
            </Array>
            <mxPoint x="1825" y="482.0800000000004" as="targetPoint" />
            <mxPoint as="offset" />
          </mxGeometry>
        </mxCell>
        <mxCell id="eI9l-XEfScTaXbGVceM7-50" value="Microservicio&lt;div&gt;&lt;b&gt;TBD&lt;/b&gt;&lt;br&gt;&lt;div&gt;Genera trama de bitácora para la consulta de los movimientos de una tarjeta de débito&lt;/div&gt;&lt;/div&gt;" style="text;html=1;align=left;verticalAlign=top;whiteSpace=wrap;rounded=0;fontSize=9;" parent="vtx71rYAX6kZKPzqjoek-152" vertex="1">
          <mxGeometry x="1862" y="430" width="160" height="59" as="geometry" />
        </mxCell>
        <mxCell id="eI9l-XEfScTaXbGVceM7-24" value="&lt;div&gt;&lt;div&gt;&lt;font style=&quot;color: rgb(0, 0, 0);&quot;&gt;Microservicio&lt;/font&gt;&lt;/div&gt;&lt;div&gt;&lt;b&gt;TBD&lt;/b&gt;&lt;br&gt;&lt;/div&gt;&lt;/div&gt;&lt;font style=&quot;color: rgb(0, 0, 0);&quot;&gt;Recibe datos sobre la consulta de movimientos de una tarjeta de débito&lt;/font&gt;&lt;br&gt;&lt;p style=&quot;margin-left: 20.6pt; text-indent: -0.25in; font-size: 10px;&quot; class=&quot;TableText&quot;&gt;&lt;i&gt;&lt;span style=&quot;&quot; lang=&quot;ES&quot;&gt;&lt;font style=&quot;font-size: 10px;&quot;&gt;&lt;/font&gt;&lt;/span&gt;&lt;/i&gt;&lt;/p&gt;" style="text;html=1;align=left;verticalAlign=top;whiteSpace=wrap;rounded=0;fontSize=9;" parent="vtx71rYAX6kZKPzqjoek-152" vertex="1">
          <mxGeometry x="1833.5" y="220" width="177" height="49.82" as="geometry" />
        </mxCell>
        <mxCell id="eI9l-XEfScTaXbGVceM7-99" value="Componente&lt;div&gt;&lt;b&gt;Launcher PLARD&lt;/b&gt;&lt;br&gt;&lt;div&gt;Recibe respuesta&amp;nbsp;&lt;span style=&quot;background-color: transparent; color: light-dark(rgb(0, 0, 0), rgb(255, 255, 255));&quot;&gt;de la consulta de los movimientos de una tarjeta de débito&lt;/span&gt;&lt;/div&gt;&lt;div&gt;[LMPJ]&lt;/div&gt;&lt;/div&gt;" style="text;html=1;align=left;verticalAlign=top;whiteSpace=wrap;rounded=0;fontSize=9;" parent="vtx71rYAX6kZKPzqjoek-152" vertex="1">
          <mxGeometry x="2122" y="1880" width="161" height="63" as="geometry" />
        </mxCell>
        <mxCell id="1G6nh8UYInP9JPz63gqY-1" value="xxxxx" style="text;html=1;align=left;verticalAlign=top;whiteSpace=wrap;rounded=0;fontSize=9;fillColor=#f8cecc;strokeColor=#b85450;" vertex="1" parent="vtx71rYAX6kZKPzqjoek-152">
          <mxGeometry x="1104" y="20" width="191" height="73" as="geometry" />
        </mxCell>
        <mxCell id="1G6nh8UYInP9JPz63gqY-2" value="" style="html=1;verticalAlign=bottom;labelBackgroundColor=none;endArrow=block;endFill=1;endSize=6;align=left;rounded=0;exitX=0.5;exitY=0.177;exitDx=0;exitDy=0;exitPerimeter=0;entryX=0.498;entryY=0.177;entryDx=0;entryDy=0;entryPerimeter=0;" edge="1" parent="vtx71rYAX6kZKPzqjoek-152">
          <mxGeometry x="-1" relative="1" as="geometry">
            <mxPoint x="1097.6600000000003" y="100.00099999999998" as="sourcePoint" />
            <mxPoint x="1335.3400000000001" y="102.24000000000001" as="targetPoint" />
            <mxPoint as="offset" />
          </mxGeometry>
        </mxCell>
        <mxCell id="1G6nh8UYInP9JPz63gqY-5" value="xxxxx" style="text;html=1;align=left;verticalAlign=top;whiteSpace=wrap;rounded=0;fontSize=9;fillColor=#f8cecc;strokeColor=#b85450;" vertex="1" parent="vtx71rYAX6kZKPzqjoek-152">
          <mxGeometry x="1352" y="45" width="191" height="73" as="geometry" />
        </mxCell>
        <mxCell id="1G6nh8UYInP9JPz63gqY-7" value="XXXX" style="text;html=1;align=left;verticalAlign=top;whiteSpace=wrap;rounded=0;fontSize=9;fillColor=#f8cecc;strokeColor=#b85450;" vertex="1" parent="vtx71rYAX6kZKPzqjoek-152">
          <mxGeometry x="1124" y="373" width="151" height="45" as="geometry" />
        </mxCell>
        <mxCell id="eI9l-XEfScTaXbGVceM7-47" value="Microservicio&lt;div&gt;&lt;b&gt;TBD&lt;/b&gt;&lt;br&gt;&lt;div&gt;Deposita Msj de Error&amp;nbsp; en Redis Streams&lt;/div&gt;&lt;/div&gt;" style="text;html=1;align=left;verticalAlign=top;whiteSpace=wrap;rounded=0;fontSize=9;" parent="vtx71rYAX6kZKPzqjoek-152" vertex="1">
          <mxGeometry x="1594" y="320" width="171" height="45" as="geometry" />
        </mxCell>
        <mxCell id="1G6nh8UYInP9JPz63gqY-9" value="XXXX" style="text;html=1;align=left;verticalAlign=top;whiteSpace=wrap;rounded=0;fontSize=9;fillColor=#f8cecc;strokeColor=#b85450;" vertex="1" parent="vtx71rYAX6kZKPzqjoek-152">
          <mxGeometry x="1364" y="340" width="151" height="45" as="geometry" />
        </mxCell>
        <mxCell id="1G6nh8UYInP9JPz63gqY-10" value="" style="html=1;points=[[0,0,0,0,5],[0,1,0,0,-5],[1,0,0,0,5],[1,1,0,0,-5]];perimeter=orthogonalPerimeter;outlineConnect=0;targetShapes=umlLifeline;portConstraint=eastwest;newEdgeStyle={&quot;curved&quot;:0,&quot;rounded&quot;:0};" vertex="1" parent="vtx71rYAX6kZKPzqjoek-152">
          <mxGeometry x="1094" y="70" width="10" height="390" as="geometry" />
        </mxCell>
        <mxCell id="vtx71rYAX6kZKPzqjoek-154" value="" style="line;strokeWidth=2;dashed=1;labelPosition=center;verticalLabelPosition=bottom;align=left;verticalAlign=top;spacingLeft=20;spacingTop=15;html=1;fontColor=none;labelBorderColor=none;noLabel=1;whiteSpace=wrap;strokeColor=#0000CC;" parent="1" vertex="1">
          <mxGeometry x="26" y="1931" width="2520" height="10" as="geometry" />
        </mxCell>
        <mxCell id="vtx71rYAX6kZKPzqjoek-155" value="[BIN != BIN Plard]" style="text;html=1;rotation=0;fontColor=#000000;" parent="1" vertex="1">
          <mxGeometry x="46" y="1980" width="100" height="20" as="geometry" />
        </mxCell>
        <mxCell id="vtx71rYAX6kZKPzqjoek-160" value="" style="html=1;points=[[0,0,0,0,5],[0,1,0,0,-5],[1,0,0,0,5],[1,1,0,0,-5]];perimeter=orthogonalPerimeter;outlineConnect=0;targetShapes=umlLifeline;portConstraint=eastwest;newEdgeStyle={&quot;curved&quot;:0,&quot;rounded&quot;:0};" parent="1" vertex="1">
          <mxGeometry x="2802" y="2160" width="10" height="100" as="geometry" />
        </mxCell>
        <mxCell id="vtx71rYAX6kZKPzqjoek-168" value="alt" style="shape=umlFrame;whiteSpace=wrap;html=1;pointerEvents=0;recursiveResize=0;container=1;collapsible=0;width=80;height=15;" parent="1" vertex="1">
          <mxGeometry x="46" y="2289" width="1820" height="281" as="geometry" />
        </mxCell>
        <mxCell id="vtx71rYAX6kZKPzqjoek-169" value="&lt;font style=&quot;font-size: 12px;&quot;&gt;[Response == 4XX]&lt;/font&gt;" style="text;html=1;rotation=0;" parent="vtx71rYAX6kZKPzqjoek-168" vertex="1">
          <mxGeometry width="90" height="23" relative="1" as="geometry">
            <mxPoint x="3" y="30" as="offset" />
          </mxGeometry>
        </mxCell>
        <mxCell id="eI9l-XEfScTaXbGVceM7-81" value="Componente&lt;div&gt;&lt;b&gt;Launcher PLARD&lt;/b&gt;&lt;br&gt;&lt;div&gt;Toma Msj de Error de Redis Streams&lt;/div&gt;&lt;/div&gt;&lt;div&gt;[LMPJ]&lt;/div&gt;" style="text;html=1;align=left;verticalAlign=top;whiteSpace=wrap;rounded=0;fontSize=9;" parent="vtx71rYAX6kZKPzqjoek-168" vertex="1">
          <mxGeometry x="2111" y="28" width="151" height="50" as="geometry" />
        </mxCell>
        <mxCell id="FZnXcnq8-5IM7QVr9gtw-3" value="" style="html=1;points=[[0,0,0,0,5],[0,1,0,0,-5],[1,0,0,0,5],[1,1,0,0,-5]];perimeter=orthogonalPerimeter;outlineConnect=0;targetShapes=umlLifeline;portConstraint=eastwest;newEdgeStyle={&quot;curved&quot;:0,&quot;rounded&quot;:0};" parent="1" vertex="1">
          <mxGeometry x="2321" y="2080" width="10" height="640" as="geometry" />
        </mxCell>
        <mxCell id="eI9l-XEfScTaXbGVceM7-6" value="" style="html=1;align=left;spacingLeft=2;endArrow=block;rounded=0;edgeStyle=orthogonalEdgeStyle;curved=0;rounded=0;fillColor=#f8cecc;strokeColor=#000000;" parent="1" edge="1">
          <mxGeometry x="-0.2922" y="20" relative="1" as="geometry">
            <mxPoint x="171" y="539.0200000000004" as="sourcePoint" />
            <Array as="points">
              <mxPoint x="201" y="539.0800000000004" />
              <mxPoint x="201" y="569.0800000000004" />
            </Array>
            <mxPoint x="171" y="569.0800000000004" as="targetPoint" />
            <mxPoint as="offset" />
          </mxGeometry>
        </mxCell>
        <mxCell id="eI9l-XEfScTaXbGVceM7-8" value="" style="html=1;verticalAlign=bottom;labelBackgroundColor=none;endArrow=block;endFill=1;endSize=6;align=left;rounded=0;" parent="1" edge="1">
          <mxGeometry x="-1" relative="1" as="geometry">
            <mxPoint x="172" y="643" as="sourcePoint" />
            <mxPoint x="401" y="643" as="targetPoint" />
            <mxPoint as="offset" />
          </mxGeometry>
        </mxCell>
        <mxCell id="eI9l-XEfScTaXbGVceM7-10" value="" style="html=1;verticalAlign=bottom;labelBackgroundColor=none;endArrow=block;endFill=1;endSize=6;align=left;rounded=0;" parent="1" edge="1">
          <mxGeometry x="-1" relative="1" as="geometry">
            <mxPoint x="412" y="679" as="sourcePoint" />
            <mxPoint x="638" y="678.9999999999995" as="targetPoint" />
            <mxPoint as="offset" />
          </mxGeometry>
        </mxCell>
        <mxCell id="eI9l-XEfScTaXbGVceM7-11" value="Queque&amp;nbsp;&lt;div&gt;&lt;b&gt;MQ Canal&lt;/b&gt;&lt;div&gt;Solicita consultar l&lt;span style=&quot;background-color: transparent; color: light-dark(rgb(0, 0, 0), rgb(255, 255, 255));&quot;&gt;os movimientos&amp;nbsp;&lt;/span&gt;&lt;span style=&quot;background-color: transparent; color: light-dark(rgb(0, 0, 0), rgb(255, 255, 255));&quot;&gt;de una tarjeta de débito&lt;/span&gt;&lt;/div&gt;&lt;div&gt;[LMPJ]&lt;/div&gt;&lt;/div&gt;" style="text;html=1;align=left;verticalAlign=top;whiteSpace=wrap;rounded=0;fontSize=9;" parent="1" vertex="1">
          <mxGeometry x="656" y="657" width="180" height="57" as="geometry" />
        </mxCell>
        <mxCell id="eI9l-XEfScTaXbGVceM7-12" value="" style="html=1;verticalAlign=bottom;labelBackgroundColor=none;endArrow=block;endFill=1;endSize=6;align=left;rounded=0;" parent="1" target="ToUPSf5seXOrwuXV1P-5-22" edge="1">
          <mxGeometry x="-1" relative="1" as="geometry">
            <mxPoint x="648" y="719" as="sourcePoint" />
            <mxPoint x="874" y="718.9999999999995" as="targetPoint" />
            <mxPoint as="offset" />
          </mxGeometry>
        </mxCell>
        <mxCell id="eI9l-XEfScTaXbGVceM7-13" value="Componente&lt;div&gt;&lt;b&gt;Launcher PLARD&lt;/b&gt;&lt;br&gt;&lt;div&gt;Deposita solicitud para consultar l&lt;span style=&quot;color: light-dark(rgb(0, 0, 0), rgb(255, 255, 255)); background-color: transparent;&quot;&gt;os movimientos&amp;nbsp;&lt;/span&gt;&lt;span style=&quot;color: light-dark(rgb(0, 0, 0), rgb(255, 255, 255)); background-color: transparent;&quot;&gt;de una tarjeta de débito&lt;/span&gt;&lt;span style=&quot;background-color: transparent; color: light-dark(rgb(0, 0, 0), rgb(255, 255, 255));&quot;&gt;&amp;nbsp;&lt;/span&gt;&lt;span style=&quot;background-color: transparent; color: light-dark(rgb(0, 0, 0), rgb(255, 255, 255));&quot;&gt;en Redis Streams&lt;/span&gt;&lt;/div&gt;&lt;div&gt;[LMPJ]&lt;/div&gt;&lt;/div&gt;" style="text;html=1;align=left;verticalAlign=top;whiteSpace=wrap;rounded=0;fontSize=9;" parent="1" vertex="1">
          <mxGeometry x="895" y="755" width="191" height="73" as="geometry" />
        </mxCell>
        <mxCell id="eI9l-XEfScTaXbGVceM7-14" value="" style="html=1;verticalAlign=bottom;labelBackgroundColor=none;endArrow=block;endFill=1;endSize=6;align=left;rounded=0;" parent="1" edge="1">
          <mxGeometry x="-1" relative="1" as="geometry">
            <mxPoint x="888" y="829" as="sourcePoint" />
            <mxPoint x="1118" y="829" as="targetPoint" />
            <mxPoint as="offset" />
          </mxGeometry>
        </mxCell>
        <mxCell id="eI9l-XEfScTaXbGVceM7-15" value="Microdiseño&lt;div&gt;&lt;b&gt;TBD&lt;/b&gt;&lt;br&gt;&lt;div&gt;Toma la solicitud de&amp;nbsp;&lt;span style=&quot;background-color: transparent; color: light-dark(rgb(0, 0, 0), rgb(255, 255, 255));&quot;&gt;consulta l&lt;/span&gt;&lt;span style=&quot;background-color: transparent; color: light-dark(rgb(0, 0, 0), rgb(255, 255, 255));&quot;&gt;os movimientos&amp;nbsp;&lt;/span&gt;&lt;span style=&quot;background-color: transparent; color: light-dark(rgb(0, 0, 0), rgb(255, 255, 255));&quot;&gt;de una tarjeta de débito&lt;/span&gt;&lt;/div&gt;&lt;div&gt;&lt;span style=&quot;background-color: transparent; color: light-dark(rgb(0, 0, 0), rgb(255, 255, 255));&quot;&gt;[LMPJ]&lt;/span&gt;&lt;/div&gt;&lt;/div&gt;" style="text;html=1;align=left;verticalAlign=top;whiteSpace=wrap;rounded=0;fontSize=9;" parent="1" vertex="1">
          <mxGeometry x="1617" y="820" width="161" height="65" as="geometry" />
        </mxCell>
        <mxCell id="eI9l-XEfScTaXbGVceM7-16" value="" style="html=1;verticalAlign=bottom;labelBackgroundColor=none;endArrow=block;endFill=1;endSize=6;align=left;rounded=0;" parent="1" edge="1">
          <mxGeometry x="-1" relative="1" as="geometry">
            <mxPoint x="1610" y="889" as="sourcePoint" />
            <mxPoint x="1840" y="889" as="targetPoint" />
            <mxPoint as="offset" />
          </mxGeometry>
        </mxCell>
        <mxCell id="eI9l-XEfScTaXbGVceM7-17" value="&lt;font style=&quot;color: rgb(0, 0, 0);&quot;&gt;Microdiseño&lt;/font&gt;&lt;div&gt;&lt;font&gt;&lt;b style=&quot;&quot;&gt;&lt;font style=&quot;color: rgb(0, 0, 0);&quot;&gt;TBD&lt;/font&gt;&lt;/b&gt;&lt;br&gt;&lt;/font&gt;&lt;div&gt;Realiza la c&lt;span style=&quot;background-color: transparent; color: light-dark(rgb(0, 0, 0), rgb(255, 255, 255));&quot;&gt;onsulta l&lt;/span&gt;&lt;span style=&quot;background-color: transparent; color: light-dark(rgb(0, 0, 0), rgb(255, 255, 255));&quot;&gt;os movimientos&amp;nbsp;&lt;/span&gt;&lt;span style=&quot;background-color: transparent; color: light-dark(rgb(0, 0, 0), rgb(255, 255, 255));&quot;&gt;de una tarjeta de débito&lt;/span&gt;&lt;/div&gt;&lt;div&gt;[LMPJ]&lt;/div&gt;&lt;/div&gt;" style="text;html=1;align=left;verticalAlign=top;whiteSpace=wrap;rounded=0;fontSize=9;" parent="1" vertex="1">
          <mxGeometry x="1857" y="868" width="201" height="60" as="geometry" />
        </mxCell>
        <mxCell id="eI9l-XEfScTaXbGVceM7-18" value="" style="html=1;verticalAlign=bottom;labelBackgroundColor=none;endArrow=block;endFill=1;endSize=6;align=left;rounded=0;" parent="1" target="bbofyv_q_nCxZHHzBAdj-51" edge="1">
          <mxGeometry x="-1" relative="1" as="geometry">
            <mxPoint x="1850" y="932" as="sourcePoint" />
            <mxPoint x="2080" y="932" as="targetPoint" />
            <mxPoint as="offset" />
          </mxGeometry>
        </mxCell>
        <mxCell id="eI9l-XEfScTaXbGVceM7-20" value="" style="html=1;align=left;spacingLeft=2;endArrow=block;rounded=0;edgeStyle=orthogonalEdgeStyle;curved=0;rounded=0;fillColor=#f8cecc;strokeColor=#000000;" parent="1" edge="1">
          <mxGeometry x="-0.2922" y="20" relative="1" as="geometry">
            <mxPoint x="2571" y="957.0200000000004" as="sourcePoint" />
            <Array as="points">
              <mxPoint x="2601" y="957.0800000000004" />
              <mxPoint x="2601" y="987.0800000000004" />
            </Array>
            <mxPoint x="2571" y="987.0800000000004" as="targetPoint" />
            <mxPoint as="offset" />
          </mxGeometry>
        </mxCell>
        <mxCell id="eI9l-XEfScTaXbGVceM7-21" value="" style="html=1;verticalAlign=bottom;labelBackgroundColor=none;endArrow=none;endFill=0;endSize=6;align=left;rounded=0;startArrow=block;startFill=1;dashed=1;exitX=0.51;exitY=0.213;exitDx=0;exitDy=0;exitPerimeter=0;" parent="1" source="ToUPSf5seXOrwuXV1P-5-10" edge="1">
          <mxGeometry x="-1" relative="1" as="geometry">
            <mxPoint x="1838" y="1020" as="sourcePoint" />
            <mxPoint x="2561" y="1025" as="targetPoint" />
            <mxPoint as="offset" />
            <Array as="points">
              <mxPoint x="2223" y="1025" />
            </Array>
          </mxGeometry>
        </mxCell>
        <mxCell id="eI9l-XEfScTaXbGVceM7-23" value="&lt;font style=&quot;color: rgb(0, 0, 0);&quot;&gt;Realiza la&amp;nbsp;&lt;/font&gt;consulta los movimientos de una tarjeta de débito&lt;div style=&quot;&quot;&gt;&lt;div&gt;&lt;div&gt;&lt;font&gt;&lt;font style=&quot;color: rgb(0, 0, 0);&quot;&gt;[API PLARD - &lt;/font&gt;&lt;font style=&quot;color: rgb(0, 0, 0);&quot;&gt;Card Transaction Authorizations&lt;/font&gt;&lt;/font&gt;&lt;/div&gt;&lt;div&gt;&lt;font&gt;&lt;b style=&quot;&quot;&gt;&lt;font style=&quot;color: rgb(0, 0, 0);&quot;&gt;(Get)&amp;nbsp;&lt;/font&gt;&lt;/b&gt;&lt;/font&gt;&lt;span style=&quot;background-color: transparent;&quot;&gt;&lt;b&gt;/{card-Id}/card-authorizations&lt;/b&gt;&lt;/span&gt;&lt;/div&gt;&lt;/div&gt;&lt;/div&gt;&lt;p style=&quot;margin-left: 20.6pt; text-indent: -0.25in; font-size: 10px;&quot; class=&quot;TableText&quot;&gt;&lt;i&gt;&lt;span style=&quot;&quot; lang=&quot;ES&quot;&gt;&lt;font style=&quot;font-size: 10px;&quot;&gt;&lt;/font&gt;&lt;/span&gt;&lt;/i&gt;&lt;/p&gt;" style="text;html=1;align=left;verticalAlign=top;whiteSpace=wrap;rounded=0;fontSize=9;" parent="1" vertex="1">
          <mxGeometry x="2604.25" y="944" width="194.75" height="50" as="geometry" />
        </mxCell>
        <mxCell id="eI9l-XEfScTaXbGVceM7-35" value="&lt;b&gt;Analista Santander&lt;/b&gt;&lt;div&gt;Visualiza Msj de Error&lt;/div&gt;" style="text;html=1;align=left;verticalAlign=top;whiteSpace=wrap;rounded=0;fontSize=9;" parent="1" vertex="1">
          <mxGeometry x="207" y="1324" width="109" height="37" as="geometry" />
        </mxCell>
        <mxCell id="eI9l-XEfScTaXbGVceM7-36" value="" style="html=1;align=left;spacingLeft=2;endArrow=block;rounded=0;edgeStyle=orthogonalEdgeStyle;curved=0;rounded=0;fillColor=#f8cecc;strokeColor=#000000;" parent="1" edge="1">
          <mxGeometry x="-0.2922" y="20" relative="1" as="geometry">
            <mxPoint x="171" y="1326.0200000000004" as="sourcePoint" />
            <Array as="points">
              <mxPoint x="201" y="1326.0800000000004" />
              <mxPoint x="201" y="1356.0800000000004" />
            </Array>
            <mxPoint x="171" y="1356.0800000000004" as="targetPoint" />
            <mxPoint as="offset" />
          </mxGeometry>
        </mxCell>
        <mxCell id="eI9l-XEfScTaXbGVceM7-37" value="&lt;div&gt;Front APP&lt;/div&gt;&lt;div&gt;&lt;b&gt;LYNX&lt;/b&gt;&lt;div&gt;Retorna Msj de Error&lt;/div&gt;&lt;/div&gt;" style="text;html=1;align=left;verticalAlign=top;whiteSpace=wrap;rounded=0;fontSize=9;" parent="1" vertex="1">
          <mxGeometry x="296" y="1242" width="90" height="44" as="geometry" />
        </mxCell>
        <mxCell id="eI9l-XEfScTaXbGVceM7-39" value="" style="html=1;verticalAlign=bottom;labelBackgroundColor=none;endArrow=none;endFill=0;endSize=6;align=left;rounded=0;startArrow=block;startFill=1;dashed=1;" parent="1" edge="1">
          <mxGeometry x="-1" relative="1" as="geometry">
            <mxPoint x="171" y="1286" as="sourcePoint" />
            <mxPoint x="401" y="1286" as="targetPoint" />
            <mxPoint as="offset" />
            <Array as="points">
              <mxPoint x="371" y="1286" />
            </Array>
          </mxGeometry>
        </mxCell>
        <mxCell id="eI9l-XEfScTaXbGVceM7-40" value="" style="html=1;verticalAlign=bottom;labelBackgroundColor=none;endArrow=none;endFill=0;endSize=6;align=left;rounded=0;startArrow=block;startFill=1;dashed=1;" parent="1" edge="1">
          <mxGeometry x="-1" relative="1" as="geometry">
            <mxPoint x="411" y="1253" as="sourcePoint" />
            <mxPoint x="638" y="1253" as="targetPoint" />
            <mxPoint as="offset" />
            <Array as="points">
              <mxPoint x="611" y="1253" />
            </Array>
          </mxGeometry>
        </mxCell>
        <mxCell id="eI9l-XEfScTaXbGVceM7-41" value="&lt;div&gt;Front APP&lt;/div&gt;&lt;div&gt;&lt;b&gt;LYNX&lt;/b&gt;&lt;div&gt;Recibe Msj de Error&lt;/div&gt;&lt;/div&gt;" style="text;html=1;align=left;verticalAlign=top;whiteSpace=wrap;rounded=0;fontSize=9;" parent="1" vertex="1">
          <mxGeometry x="541" y="1207" width="90" height="44" as="geometry" />
        </mxCell>
        <mxCell id="eI9l-XEfScTaXbGVceM7-42" value="" style="html=1;verticalAlign=bottom;labelBackgroundColor=none;endArrow=none;endFill=0;endSize=6;align=left;rounded=0;startArrow=block;startFill=1;dashed=1;" parent="1" edge="1">
          <mxGeometry x="-1" relative="1" as="geometry">
            <mxPoint x="649" y="1223" as="sourcePoint" />
            <mxPoint x="876" y="1223" as="targetPoint" />
            <mxPoint as="offset" />
            <Array as="points">
              <mxPoint x="849" y="1223" />
            </Array>
          </mxGeometry>
        </mxCell>
        <mxCell id="eI9l-XEfScTaXbGVceM7-43" value="" style="html=1;verticalAlign=bottom;labelBackgroundColor=none;endArrow=none;endFill=0;endSize=6;align=left;rounded=0;startArrow=block;startFill=1;dashed=1;" parent="1" edge="1">
          <mxGeometry x="-1" relative="1" as="geometry">
            <mxPoint x="889" y="1195" as="sourcePoint" />
            <mxPoint x="1116" y="1195" as="targetPoint" />
            <mxPoint as="offset" />
            <Array as="points">
              <mxPoint x="1089" y="1195" />
            </Array>
          </mxGeometry>
        </mxCell>
        <mxCell id="eI9l-XEfScTaXbGVceM7-51" value="" style="html=1;verticalAlign=bottom;labelBackgroundColor=none;endArrow=block;endFill=1;endSize=6;align=left;rounded=0;" parent="1" target="vtx71rYAX6kZKPzqjoek-38" edge="1">
          <mxGeometry x="-1" relative="1" as="geometry">
            <mxPoint x="1851" y="1332" as="sourcePoint" />
            <mxPoint x="2081" y="1332" as="targetPoint" />
            <mxPoint as="offset" />
          </mxGeometry>
        </mxCell>
        <mxCell id="eI9l-XEfScTaXbGVceM7-52" value="Microservicio&lt;div&gt;&lt;b&gt;TBD&lt;/b&gt;&lt;br&gt;&lt;div&gt;Publica trama de bitácora para la&amp;nbsp; consulta de los movimientos de una tarjeta de débito&lt;/div&gt;&lt;/div&gt;" style="text;html=1;align=left;verticalAlign=top;whiteSpace=wrap;rounded=0;fontSize=9;" parent="1" vertex="1">
          <mxGeometry x="1856" y="1270" width="160" height="59" as="geometry" />
        </mxCell>
        <mxCell id="eI9l-XEfScTaXbGVceM7-53" value="" style="html=1;verticalAlign=bottom;labelBackgroundColor=none;endArrow=none;endFill=0;endSize=6;align=left;rounded=0;startArrow=block;startFill=1;dashed=1;" parent="1" edge="1">
          <mxGeometry x="-1" relative="1" as="geometry">
            <mxPoint x="1851" y="1376" as="sourcePoint" />
            <mxPoint x="2078" y="1376" as="targetPoint" />
            <mxPoint as="offset" />
            <Array as="points">
              <mxPoint x="2051" y="1376" />
            </Array>
          </mxGeometry>
        </mxCell>
        <mxCell id="eI9l-XEfScTaXbGVceM7-54" value="Response 200" style="text;html=1;align=left;verticalAlign=top;whiteSpace=wrap;rounded=0;fontSize=9;" parent="1" vertex="1">
          <mxGeometry x="2007" y="1355" width="70" height="20" as="geometry" />
        </mxCell>
        <mxCell id="eI9l-XEfScTaXbGVceM7-55" value="" style="html=1;align=left;spacingLeft=2;endArrow=block;rounded=0;edgeStyle=orthogonalEdgeStyle;curved=0;rounded=0;fillColor=#f8cecc;strokeColor=#000000;" parent="1" edge="1">
          <mxGeometry x="-0.2922" y="20" relative="1" as="geometry">
            <mxPoint x="1851" y="1472.0200000000004" as="sourcePoint" />
            <Array as="points">
              <mxPoint x="1881" y="1472.0800000000004" />
              <mxPoint x="1881" y="1502.0800000000004" />
            </Array>
            <mxPoint x="1851" y="1502.0800000000004" as="targetPoint" />
            <mxPoint as="offset" />
          </mxGeometry>
        </mxCell>
        <mxCell id="eI9l-XEfScTaXbGVceM7-56" value="Microservicio&lt;div&gt;&lt;b&gt;TBD&lt;/b&gt;&lt;br&gt;&lt;div&gt;Genera reporte para la&amp;nbsp;&lt;span style=&quot;background-color: transparent; color: light-dark(rgb(0, 0, 0), rgb(255, 255, 255));&quot;&gt;consulta de los movimientos de una tarjeta de débito con formato&amp;nbsp;&lt;/span&gt;&lt;span style=&quot;background-color: transparent; color: light-dark(rgb(0, 0, 0), rgb(255, 255, 255));&quot;&gt;[LMPJ]&lt;/span&gt;&lt;span style=&quot;background-color: transparent; color: light-dark(rgb(0, 0, 0), rgb(255, 255, 255));&quot;&gt;&amp;nbsp;&lt;/span&gt;&lt;/div&gt;&lt;/div&gt;" style="text;html=1;align=left;verticalAlign=top;whiteSpace=wrap;rounded=0;fontSize=9;" parent="1" vertex="1">
          <mxGeometry x="1888" y="1455" width="160" height="59" as="geometry" />
        </mxCell>
        <mxCell id="eI9l-XEfScTaXbGVceM7-57" value="" style="html=1;verticalAlign=bottom;labelBackgroundColor=none;endArrow=none;endFill=0;endSize=6;align=left;rounded=0;startArrow=block;startFill=1;dashed=1;" parent="1" edge="1">
          <mxGeometry x="-1" relative="1" as="geometry">
            <mxPoint x="1610" y="1556" as="sourcePoint" />
            <mxPoint x="1837" y="1556" as="targetPoint" />
            <mxPoint as="offset" />
            <Array as="points">
              <mxPoint x="1810" y="1556" />
            </Array>
          </mxGeometry>
        </mxCell>
        <mxCell id="eI9l-XEfScTaXbGVceM7-58" value="Microservicio&lt;div&gt;&lt;b&gt;TBD&lt;/b&gt;&lt;br&gt;&lt;div&gt;Deposita respuesta de la consulta de los movimientos de una tarjeta de débito en Redis Streams&lt;/div&gt;&lt;/div&gt;&lt;div&gt;[LMPJ]&lt;/div&gt;" style="text;html=1;align=left;verticalAlign=top;whiteSpace=wrap;rounded=0;fontSize=9;" parent="1" vertex="1">
          <mxGeometry x="1667" y="1481" width="171" height="75" as="geometry" />
        </mxCell>
        <mxCell id="eI9l-XEfScTaXbGVceM7-59" value="Queque&amp;nbsp;&lt;div&gt;&lt;b&gt;MQ Canal&lt;/b&gt;&lt;div&gt;Recibe&amp;nbsp;&lt;span style=&quot;background-color: transparent; color: light-dark(rgb(0, 0, 0), rgb(255, 255, 255));&quot;&gt;respuesta&lt;/span&gt;&lt;span style=&quot;background-color: transparent; color: light-dark(rgb(0, 0, 0), rgb(255, 255, 255));&quot;&gt;&amp;nbsp;&lt;/span&gt;&lt;span style=&quot;background-color: transparent; color: light-dark(rgb(0, 0, 0), rgb(255, 255, 255));&quot;&gt;de la consulta de los movimientos de una tarjeta de débito en Redis Streams&lt;/span&gt;&lt;/div&gt;&lt;div&gt;[LMPJ]&lt;/div&gt;&lt;/div&gt;" style="text;html=1;align=left;verticalAlign=top;whiteSpace=wrap;rounded=0;fontSize=9;" parent="1" vertex="1">
          <mxGeometry x="706" y="1549" width="165" height="72" as="geometry" />
        </mxCell>
        <mxCell id="eI9l-XEfScTaXbGVceM7-60" value="Componente&lt;div&gt;&lt;b&gt;Launcher PLARD&lt;/b&gt;&lt;br&gt;&lt;div&gt;Toma respuesta&amp;nbsp;&lt;span style=&quot;background-color: transparent; color: light-dark(rgb(0, 0, 0), rgb(255, 255, 255));&quot;&gt;de la consulta de los movimientos de una tarjeta de débito en Redis Streams&lt;/span&gt;&lt;/div&gt;&lt;div&gt;[LMPJ]&lt;/div&gt;&lt;/div&gt;" style="text;html=1;align=left;verticalAlign=top;whiteSpace=wrap;rounded=0;fontSize=9;" parent="1" vertex="1">
          <mxGeometry x="925" y="1520" width="186" height="63" as="geometry" />
        </mxCell>
        <mxCell id="eI9l-XEfScTaXbGVceM7-61" value="" style="html=1;verticalAlign=bottom;labelBackgroundColor=none;endArrow=none;endFill=0;endSize=6;align=left;rounded=0;startArrow=block;startFill=1;dashed=1;" parent="1" edge="1">
          <mxGeometry x="-1" relative="1" as="geometry">
            <mxPoint x="649" y="1623" as="sourcePoint" />
            <mxPoint x="876" y="1623" as="targetPoint" />
            <mxPoint as="offset" />
            <Array as="points">
              <mxPoint x="849" y="1623" />
            </Array>
          </mxGeometry>
        </mxCell>
        <mxCell id="eI9l-XEfScTaXbGVceM7-62" value="" style="html=1;verticalAlign=bottom;labelBackgroundColor=none;endArrow=none;endFill=0;endSize=6;align=left;rounded=0;startArrow=block;startFill=1;dashed=1;" parent="1" edge="1">
          <mxGeometry x="-1" relative="1" as="geometry">
            <mxPoint x="889" y="1595" as="sourcePoint" />
            <mxPoint x="1116" y="1595" as="targetPoint" />
            <mxPoint as="offset" />
            <Array as="points">
              <mxPoint x="1089" y="1595" />
            </Array>
          </mxGeometry>
        </mxCell>
        <mxCell id="eI9l-XEfScTaXbGVceM7-65" value="&lt;div&gt;Front APP&lt;/div&gt;&lt;div&gt;&lt;b&gt;LYNX&lt;/b&gt;&lt;div&gt;Presenta en pantalla la información sobre la consulta de movimientos de una tarjeta de débito.&lt;/div&gt;&lt;/div&gt;" style="text;html=1;align=left;verticalAlign=top;whiteSpace=wrap;rounded=0;fontSize=9;" parent="1" vertex="1">
          <mxGeometry x="246" y="1640" width="150" height="66" as="geometry" />
        </mxCell>
        <mxCell id="eI9l-XEfScTaXbGVceM7-66" value="" style="html=1;verticalAlign=bottom;labelBackgroundColor=none;endArrow=none;endFill=0;endSize=6;align=left;rounded=0;startArrow=block;startFill=1;dashed=1;" parent="1" edge="1">
          <mxGeometry x="-1" relative="1" as="geometry">
            <mxPoint x="171" y="1706" as="sourcePoint" />
            <mxPoint x="401" y="1706" as="targetPoint" />
            <mxPoint as="offset" />
            <Array as="points">
              <mxPoint x="371" y="1706" />
            </Array>
          </mxGeometry>
        </mxCell>
        <mxCell id="eI9l-XEfScTaXbGVceM7-67" value="" style="html=1;verticalAlign=bottom;labelBackgroundColor=none;endArrow=none;endFill=0;endSize=6;align=left;rounded=0;startArrow=block;startFill=1;dashed=1;" parent="1" edge="1">
          <mxGeometry x="-1" relative="1" as="geometry">
            <mxPoint x="411" y="1673" as="sourcePoint" />
            <mxPoint x="638" y="1673" as="targetPoint" />
            <mxPoint as="offset" />
            <Array as="points">
              <mxPoint x="611" y="1673" />
            </Array>
          </mxGeometry>
        </mxCell>
        <mxCell id="eI9l-XEfScTaXbGVceM7-68" value="&lt;div&gt;Front APP&lt;/div&gt;&lt;div&gt;&lt;b&gt;LYNX&lt;/b&gt;&lt;div&gt;&lt;div&gt;Recibe&amp;nbsp;&lt;span style=&quot;background-color: transparent; color: light-dark(rgb(0, 0, 0), rgb(255, 255, 255));&quot;&gt;respuesta&amp;nbsp;&lt;/span&gt;&lt;span style=&quot;background-color: transparent; color: light-dark(rgb(0, 0, 0), rgb(255, 255, 255));&quot;&gt;de la consulta de los movimientos de una tarjeta de débito&lt;/span&gt;&lt;/div&gt;&lt;div&gt;[LMPJ]&lt;/div&gt;&lt;/div&gt;&lt;/div&gt;" style="text;html=1;align=left;verticalAlign=top;whiteSpace=wrap;rounded=0;fontSize=9;" parent="1" vertex="1">
          <mxGeometry x="452" y="1606" width="185" height="61" as="geometry" />
        </mxCell>
        <mxCell id="eI9l-XEfScTaXbGVceM7-70" value="Componente&lt;div&gt;&lt;b&gt;Launcher PLARD&lt;/b&gt;&lt;br&gt;&lt;div&gt;Realiza la solicitud para consultar los bloqueos operativos&amp;nbsp;&lt;span style=&quot;background-color: transparent; color: light-dark(rgb(0, 0, 0), rgb(255, 255, 255));&quot;&gt;de una tarjeta de débito&lt;/span&gt;&lt;/div&gt;&lt;div&gt;[LMPJ]&lt;/div&gt;&lt;/div&gt;" style="text;html=1;align=left;verticalAlign=top;whiteSpace=wrap;rounded=0;fontSize=9;" parent="1" vertex="1">
          <mxGeometry x="895" y="2025" width="191" height="65" as="geometry" />
        </mxCell>
        <mxCell id="eI9l-XEfScTaXbGVceM7-71" value="" style="html=1;verticalAlign=bottom;labelBackgroundColor=none;endArrow=block;endFill=1;endSize=6;align=left;rounded=0;" parent="1" edge="1">
          <mxGeometry x="-1" relative="1" as="geometry">
            <mxPoint x="888" y="2093" as="sourcePoint" />
            <mxPoint x="1839" y="2093" as="targetPoint" />
            <mxPoint as="offset" />
          </mxGeometry>
        </mxCell>
        <mxCell id="eI9l-XEfScTaXbGVceM7-72" value="" style="html=1;verticalAlign=bottom;labelBackgroundColor=none;endArrow=none;endFill=0;endSize=6;align=left;rounded=0;startArrow=block;startFill=1;dashed=1;" parent="1" edge="1">
          <mxGeometry x="-1" relative="1" as="geometry">
            <mxPoint x="888" y="2369" as="sourcePoint" />
            <mxPoint x="1839" y="2369" as="targetPoint" />
            <mxPoint as="offset" />
            <Array as="points">
              <mxPoint x="1261" y="2369" />
            </Array>
          </mxGeometry>
        </mxCell>
        <mxCell id="eI9l-XEfScTaXbGVceM7-73" value="Queque&lt;div&gt;&lt;b&gt;MQ 390&lt;/b&gt;&lt;br&gt;&lt;div&gt;Solicita ejecución de la consulta de movimientos de una tarjeta de débito&lt;/div&gt;&lt;div&gt;[LMPJ]&lt;/div&gt;&lt;/div&gt;" style="text;html=1;align=left;verticalAlign=top;whiteSpace=wrap;rounded=0;fontSize=9;" parent="1" vertex="1">
          <mxGeometry x="2365" y="2108" width="201" height="60" as="geometry" />
        </mxCell>
        <mxCell id="eI9l-XEfScTaXbGVceM7-74" value="" style="html=1;verticalAlign=bottom;labelBackgroundColor=none;endArrow=block;endFill=1;endSize=6;align=left;rounded=0;" parent="1" edge="1">
          <mxGeometry x="-1" relative="1" as="geometry">
            <mxPoint x="2331" y="2171" as="sourcePoint" />
            <mxPoint x="2802" y="2171" as="targetPoint" />
            <mxPoint as="offset" />
          </mxGeometry>
        </mxCell>
        <mxCell id="eI9l-XEfScTaXbGVceM7-75" value="" style="html=1;align=left;spacingLeft=2;endArrow=block;rounded=0;edgeStyle=orthogonalEdgeStyle;curved=0;rounded=0;fillColor=#f8cecc;strokeColor=#000000;" parent="1" edge="1">
          <mxGeometry x="-0.2922" y="20" relative="1" as="geometry">
            <mxPoint x="2812" y="2187.0200000000004" as="sourcePoint" />
            <Array as="points">
              <mxPoint x="2842" y="2187.0800000000004" />
              <mxPoint x="2842" y="2217.0800000000004" />
            </Array>
            <mxPoint x="2812" y="2217.0800000000004" as="targetPoint" />
            <mxPoint as="offset" />
          </mxGeometry>
        </mxCell>
        <mxCell id="eI9l-XEfScTaXbGVceM7-76" value="Realiza la consulta por device-id los movimientos de la tarjeta de débito&lt;div style=&quot;&quot;&gt;{LMPJ}&lt;/div&gt;&lt;p style=&quot;margin-left: 20.6pt; text-indent: -0.25in; font-size: 10px;&quot; class=&quot;TableText&quot;&gt;&lt;i&gt;&lt;span style=&quot;&quot; lang=&quot;ES&quot;&gt;&lt;font style=&quot;font-size: 10px;&quot;&gt;&lt;/font&gt;&lt;/span&gt;&lt;/i&gt;&lt;/p&gt;" style="text;html=1;align=left;verticalAlign=top;whiteSpace=wrap;rounded=0;fontSize=9;" parent="1" vertex="1">
          <mxGeometry x="2844.25" y="2179" width="175.75" height="47" as="geometry" />
        </mxCell>
        <mxCell id="eI9l-XEfScTaXbGVceM7-77" value="" style="html=1;verticalAlign=bottom;labelBackgroundColor=none;endArrow=none;endFill=0;endSize=6;align=left;rounded=0;startArrow=block;startFill=1;dashed=1;" parent="1" edge="1">
          <mxGeometry x="-1" relative="1" as="geometry">
            <mxPoint x="2331" y="2252" as="sourcePoint" />
            <mxPoint x="2801" y="2252" as="targetPoint" />
            <mxPoint as="offset" />
            <Array as="points">
              <mxPoint x="2463" y="2252" />
            </Array>
          </mxGeometry>
        </mxCell>
        <mxCell id="eI9l-XEfScTaXbGVceM7-78" value="Queque&lt;div&gt;&lt;b&gt;MQ 390&lt;/b&gt;&lt;br&gt;&lt;div&gt;Recibe respuesta&amp;nbsp;&lt;span style=&quot;background-color: transparent; color: light-dark(rgb(0, 0, 0), rgb(255, 255, 255));&quot;&gt;de la consulta de movimientos de una tarjeta de débito&lt;/span&gt;&lt;/div&gt;&lt;div&gt;[LMPJ]&lt;/div&gt;&lt;/div&gt;" style="text;html=1;align=left;verticalAlign=top;whiteSpace=wrap;rounded=0;fontSize=9;" parent="1" vertex="1">
          <mxGeometry x="2598" y="2188" width="201" height="60" as="geometry" />
        </mxCell>
        <mxCell id="eI9l-XEfScTaXbGVceM7-80" value="Queque&amp;nbsp;&lt;div&gt;&lt;b&gt;MQ Canal&lt;/b&gt;&lt;div&gt;Recibe Msj de Error&lt;/div&gt;&lt;/div&gt;" style="text;html=1;align=left;verticalAlign=top;whiteSpace=wrap;rounded=0;fontSize=9;" parent="1" vertex="1">
          <mxGeometry x="782" y="2356" width="90" height="43" as="geometry" />
        </mxCell>
        <mxCell id="eI9l-XEfScTaXbGVceM7-82" value="&lt;b&gt;Analista Santander&lt;/b&gt;&lt;div&gt;Visualiza Msj de Error&lt;/div&gt;" style="text;html=1;align=left;verticalAlign=top;whiteSpace=wrap;rounded=0;fontSize=9;" parent="1" vertex="1">
          <mxGeometry x="207" y="2501" width="109" height="37" as="geometry" />
        </mxCell>
        <mxCell id="eI9l-XEfScTaXbGVceM7-83" value="" style="html=1;align=left;spacingLeft=2;endArrow=block;rounded=0;edgeStyle=orthogonalEdgeStyle;curved=0;rounded=0;fillColor=#f8cecc;strokeColor=#000000;" parent="1" edge="1">
          <mxGeometry x="-0.2922" y="20" relative="1" as="geometry">
            <mxPoint x="171" y="2503.0200000000004" as="sourcePoint" />
            <Array as="points">
              <mxPoint x="201" y="2503.0800000000004" />
              <mxPoint x="201" y="2533.0800000000004" />
            </Array>
            <mxPoint x="171" y="2533.0800000000004" as="targetPoint" />
            <mxPoint as="offset" />
          </mxGeometry>
        </mxCell>
        <mxCell id="eI9l-XEfScTaXbGVceM7-84" value="&lt;div&gt;Front APP&lt;/div&gt;&lt;div&gt;&lt;b&gt;LYNX&lt;/b&gt;&lt;div&gt;Retorna Msj de Error&lt;/div&gt;&lt;/div&gt;" style="text;html=1;align=left;verticalAlign=top;whiteSpace=wrap;rounded=0;fontSize=9;" parent="1" vertex="1">
          <mxGeometry x="296" y="2419" width="90" height="44" as="geometry" />
        </mxCell>
        <mxCell id="eI9l-XEfScTaXbGVceM7-85" value="" style="html=1;verticalAlign=bottom;labelBackgroundColor=none;endArrow=none;endFill=0;endSize=6;align=left;rounded=0;startArrow=block;startFill=1;dashed=1;" parent="1" edge="1">
          <mxGeometry x="-1" relative="1" as="geometry">
            <mxPoint x="171" y="2463" as="sourcePoint" />
            <mxPoint x="401" y="2463" as="targetPoint" />
            <mxPoint as="offset" />
            <Array as="points">
              <mxPoint x="371" y="2463" />
            </Array>
          </mxGeometry>
        </mxCell>
        <mxCell id="eI9l-XEfScTaXbGVceM7-86" value="" style="html=1;verticalAlign=bottom;labelBackgroundColor=none;endArrow=none;endFill=0;endSize=6;align=left;rounded=0;startArrow=block;startFill=1;dashed=1;" parent="1" edge="1">
          <mxGeometry x="-1" relative="1" as="geometry">
            <mxPoint x="411" y="2430" as="sourcePoint" />
            <mxPoint x="638" y="2430" as="targetPoint" />
            <mxPoint as="offset" />
            <Array as="points">
              <mxPoint x="611" y="2430" />
            </Array>
          </mxGeometry>
        </mxCell>
        <mxCell id="eI9l-XEfScTaXbGVceM7-87" value="&lt;div&gt;Front APP&lt;/div&gt;&lt;div&gt;&lt;b&gt;LYNX&lt;/b&gt;&lt;div&gt;Recibe Msj de Error&lt;/div&gt;&lt;/div&gt;" style="text;html=1;align=left;verticalAlign=top;whiteSpace=wrap;rounded=0;fontSize=9;" parent="1" vertex="1">
          <mxGeometry x="541" y="2384" width="90" height="44" as="geometry" />
        </mxCell>
        <mxCell id="eI9l-XEfScTaXbGVceM7-88" value="" style="html=1;verticalAlign=bottom;labelBackgroundColor=none;endArrow=none;endFill=0;endSize=6;align=left;rounded=0;startArrow=block;startFill=1;dashed=1;" parent="1" edge="1">
          <mxGeometry x="-1" relative="1" as="geometry">
            <mxPoint x="649" y="2400" as="sourcePoint" />
            <mxPoint x="876" y="2400" as="targetPoint" />
            <mxPoint as="offset" />
            <Array as="points">
              <mxPoint x="849" y="2400" />
            </Array>
          </mxGeometry>
        </mxCell>
        <mxCell id="eI9l-XEfScTaXbGVceM7-90" value="" style="html=1;verticalAlign=bottom;labelBackgroundColor=none;endArrow=none;endFill=0;endSize=6;align=left;rounded=0;startArrow=block;startFill=1;dashed=1;" parent="1" edge="1">
          <mxGeometry x="-1" relative="1" as="geometry">
            <mxPoint x="888" y="2699" as="sourcePoint" />
            <mxPoint x="1839" y="2699" as="targetPoint" />
            <mxPoint as="offset" />
            <Array as="points">
              <mxPoint x="1261" y="2699" />
            </Array>
          </mxGeometry>
        </mxCell>
        <mxCell id="eI9l-XEfScTaXbGVceM7-91" value="Queque&amp;nbsp;&lt;div&gt;&lt;b&gt;MQ Canal&lt;/b&gt;&lt;div&gt;Recibe&amp;nbsp;&lt;span style=&quot;background-color: transparent; color: light-dark(rgb(0, 0, 0), rgb(255, 255, 255));&quot;&gt;respuesta&amp;nbsp;&lt;/span&gt;&lt;span style=&quot;background-color: transparent; color: light-dark(rgb(0, 0, 0), rgb(255, 255, 255));&quot;&gt;de la consulta de los movimientos de una tarjeta de débito en Redis Streams&lt;/span&gt;&lt;/div&gt;&lt;div&gt;[LMPJ]&lt;/div&gt;&lt;/div&gt;" style="text;html=1;align=left;verticalAlign=top;whiteSpace=wrap;rounded=0;fontSize=9;" parent="1" vertex="1">
          <mxGeometry x="699" y="2679" width="176" height="72" as="geometry" />
        </mxCell>
        <mxCell id="eI9l-XEfScTaXbGVceM7-92" value="" style="html=1;verticalAlign=bottom;labelBackgroundColor=none;endArrow=none;endFill=0;endSize=6;align=left;rounded=0;startArrow=block;startFill=1;dashed=1;" parent="1" edge="1">
          <mxGeometry x="-1" relative="1" as="geometry">
            <mxPoint x="649" y="2753" as="sourcePoint" />
            <mxPoint x="876" y="2753" as="targetPoint" />
            <mxPoint as="offset" />
            <Array as="points">
              <mxPoint x="849" y="2753" />
            </Array>
          </mxGeometry>
        </mxCell>
        <mxCell id="eI9l-XEfScTaXbGVceM7-95" value="&lt;div&gt;&lt;div&gt;Front APP&lt;/div&gt;&lt;div&gt;&lt;b&gt;LYNX&lt;/b&gt;&lt;div&gt;Presenta en pantalla la información sobre la consulta de movimientos de una tarjeta de débito.&lt;/div&gt;&lt;/div&gt;&lt;/div&gt;" style="text;html=1;align=left;verticalAlign=top;whiteSpace=wrap;rounded=0;fontSize=9;" parent="1" vertex="1">
          <mxGeometry x="246" y="2770" width="150" height="66" as="geometry" />
        </mxCell>
        <mxCell id="eI9l-XEfScTaXbGVceM7-96" value="" style="html=1;verticalAlign=bottom;labelBackgroundColor=none;endArrow=none;endFill=0;endSize=6;align=left;rounded=0;startArrow=block;startFill=1;dashed=1;" parent="1" edge="1">
          <mxGeometry x="-1" relative="1" as="geometry">
            <mxPoint x="171" y="2836" as="sourcePoint" />
            <mxPoint x="401" y="2836" as="targetPoint" />
            <mxPoint as="offset" />
            <Array as="points">
              <mxPoint x="371" y="2836" />
            </Array>
          </mxGeometry>
        </mxCell>
        <mxCell id="eI9l-XEfScTaXbGVceM7-97" value="" style="html=1;verticalAlign=bottom;labelBackgroundColor=none;endArrow=none;endFill=0;endSize=6;align=left;rounded=0;startArrow=block;startFill=1;dashed=1;" parent="1" edge="1">
          <mxGeometry x="-1" relative="1" as="geometry">
            <mxPoint x="411" y="2803" as="sourcePoint" />
            <mxPoint x="638" y="2803" as="targetPoint" />
            <mxPoint as="offset" />
            <Array as="points">
              <mxPoint x="611" y="2803" />
            </Array>
          </mxGeometry>
        </mxCell>
        <mxCell id="eI9l-XEfScTaXbGVceM7-98" value="&lt;div&gt;Front APP&lt;/div&gt;&lt;div&gt;&lt;b&gt;LYNX&lt;/b&gt;&lt;div&gt;&lt;div&gt;Recibe&amp;nbsp;&lt;span style=&quot;background-color: transparent; color: light-dark(rgb(0, 0, 0), rgb(255, 255, 255));&quot;&gt;respuesta&amp;nbsp;&lt;/span&gt;&lt;span style=&quot;background-color: transparent; color: light-dark(rgb(0, 0, 0), rgb(255, 255, 255));&quot;&gt;de la consulta de los movimientos de una tarjeta de débito&lt;/span&gt;&lt;/div&gt;&lt;div&gt;[LMPJ]&lt;/div&gt;&lt;/div&gt;&lt;/div&gt;" style="text;html=1;align=left;verticalAlign=top;whiteSpace=wrap;rounded=0;fontSize=9;" parent="1" vertex="1">
          <mxGeometry x="471" y="2736" width="164" height="61" as="geometry" />
        </mxCell>
        <mxCell id="ZJdsMwzGz0Rj26bAfk6r-1" value="" style="html=1;points=[[0,0,0,0,5],[0,1,0,0,-5],[1,0,0,0,5],[1,1,0,0,-5]];perimeter=orthogonalPerimeter;outlineConnect=0;targetShapes=umlLifeline;portConstraint=eastwest;newEdgeStyle={&quot;curved&quot;:0,&quot;rounded&quot;:0};" parent="1" vertex="1">
          <mxGeometry x="2079" y="1770" width="10" height="58" as="geometry" />
        </mxCell>
        <mxCell id="ZJdsMwzGz0Rj26bAfk6r-2" value="" style="html=1;align=left;spacingLeft=2;endArrow=block;rounded=0;edgeStyle=orthogonalEdgeStyle;curved=0;rounded=0;fillColor=#f8cecc;strokeColor=#000000;" parent="1" edge="1">
          <mxGeometry x="-0.2922" y="20" relative="1" as="geometry">
            <mxPoint x="1851" y="1632.0200000000004" as="sourcePoint" />
            <Array as="points">
              <mxPoint x="1881" y="1632.0800000000004" />
              <mxPoint x="1881" y="1662.0800000000004" />
            </Array>
            <mxPoint x="1851" y="1662.0800000000004" as="targetPoint" />
            <mxPoint as="offset" />
          </mxGeometry>
        </mxCell>
        <mxCell id="ZJdsMwzGz0Rj26bAfk6r-4" value="" style="html=1;verticalAlign=bottom;labelBackgroundColor=none;endArrow=block;endFill=1;endSize=6;align=left;rounded=0;" parent="1" target="ZJdsMwzGz0Rj26bAfk6r-1" edge="1">
          <mxGeometry x="-1" relative="1" as="geometry">
            <mxPoint x="1851" y="1778" as="sourcePoint" />
            <mxPoint x="2081" y="1778" as="targetPoint" />
            <mxPoint as="offset" />
          </mxGeometry>
        </mxCell>
        <mxCell id="ZJdsMwzGz0Rj26bAfk6r-6" value="" style="html=1;verticalAlign=bottom;labelBackgroundColor=none;endArrow=none;endFill=0;endSize=6;align=left;rounded=0;startArrow=block;startFill=1;dashed=1;" parent="1" edge="1">
          <mxGeometry x="-1" relative="1" as="geometry">
            <mxPoint x="1851" y="1822" as="sourcePoint" />
            <mxPoint x="2078" y="1822" as="targetPoint" />
            <mxPoint as="offset" />
            <Array as="points">
              <mxPoint x="2051" y="1822" />
            </Array>
          </mxGeometry>
        </mxCell>
        <mxCell id="ZJdsMwzGz0Rj26bAfk6r-7" value="Response 200" style="text;html=1;align=left;verticalAlign=top;whiteSpace=wrap;rounded=0;fontSize=9;" parent="1" vertex="1">
          <mxGeometry x="2007" y="1801" width="70" height="20" as="geometry" />
        </mxCell>
        <mxCell id="ZJdsMwzGz0Rj26bAfk6r-8" value="&lt;b&gt;Analista Santander&lt;/b&gt;&lt;div&gt;Visualiza la consulta de movimientos&amp;nbsp;&lt;span style=&quot;background-color: transparent; color: light-dark(rgb(0, 0, 0), rgb(255, 255, 255));&quot;&gt;en la tarjeta de débito.&lt;/span&gt;&lt;/div&gt;" style="text;html=1;align=left;verticalAlign=top;whiteSpace=wrap;rounded=0;fontSize=9;" parent="1" vertex="1">
          <mxGeometry x="207" y="1760" width="139" height="50" as="geometry" />
        </mxCell>
        <mxCell id="ZJdsMwzGz0Rj26bAfk6r-9" value="" style="html=1;align=left;spacingLeft=2;endArrow=block;rounded=0;edgeStyle=orthogonalEdgeStyle;curved=0;rounded=0;fillColor=#f8cecc;strokeColor=#000000;" parent="1" edge="1">
          <mxGeometry x="-0.2922" y="20" relative="1" as="geometry">
            <mxPoint x="171" y="1769.0200000000004" as="sourcePoint" />
            <Array as="points">
              <mxPoint x="201" y="1769.0800000000004" />
              <mxPoint x="201" y="1799.0800000000004" />
            </Array>
            <mxPoint x="171" y="1799.0800000000004" as="targetPoint" />
            <mxPoint as="offset" />
          </mxGeometry>
        </mxCell>
        <mxCell id="ZJdsMwzGz0Rj26bAfk6r-10" value="Microservicio&lt;div&gt;&lt;b&gt;TBD&lt;/b&gt;&lt;br&gt;&lt;div&gt;Genera trama de bitácora de consulta los movimientos de una tarjeta de débito&lt;/div&gt;&lt;/div&gt;" style="text;html=1;align=left;verticalAlign=top;whiteSpace=wrap;rounded=0;fontSize=9;" parent="1" vertex="1">
          <mxGeometry x="1888" y="1618" width="160" height="59" as="geometry" />
        </mxCell>
        <mxCell id="ZJdsMwzGz0Rj26bAfk6r-11" value="Microservicio&lt;div&gt;&lt;b&gt;TBD&lt;/b&gt;&lt;br&gt;&lt;div&gt;Publica trama de bitácora de consulta los movimientos de una tarjeta de débito&lt;/div&gt;&lt;/div&gt;" style="text;html=1;align=left;verticalAlign=top;whiteSpace=wrap;rounded=0;fontSize=9;" parent="1" vertex="1">
          <mxGeometry x="1856" y="1710" width="160" height="59" as="geometry" />
        </mxCell>
        <mxCell id="ZJdsMwzGz0Rj26bAfk6r-13" value="" style="html=1;align=left;spacingLeft=2;endArrow=block;rounded=0;edgeStyle=orthogonalEdgeStyle;curved=0;rounded=0;fillColor=#f8cecc;strokeColor=#000000;" parent="1" edge="1">
          <mxGeometry x="-0.2922" y="20" relative="1" as="geometry">
            <mxPoint x="171" y="2899.0200000000004" as="sourcePoint" />
            <Array as="points">
              <mxPoint x="201" y="2899.0800000000004" />
              <mxPoint x="201" y="2929.0800000000004" />
            </Array>
            <mxPoint x="171" y="2929.0800000000004" as="targetPoint" />
            <mxPoint as="offset" />
          </mxGeometry>
        </mxCell>
        <mxCell id="ZJdsMwzGz0Rj26bAfk6r-14" value="&lt;div&gt;&lt;b&gt;Analista Santander&lt;/b&gt;&lt;div&gt;Visualiza la consulta de movimientos&amp;nbsp;&lt;span style=&quot;background-color: transparent; color: light-dark(rgb(0, 0, 0), rgb(255, 255, 255));&quot;&gt;en la tarjeta de débito.&lt;/span&gt;&lt;/div&gt;&lt;/div&gt;" style="text;html=1;align=left;verticalAlign=top;whiteSpace=wrap;rounded=0;fontSize=9;" parent="1" vertex="1">
          <mxGeometry x="207" y="2889" width="139" height="50" as="geometry" />
        </mxCell>
        <mxCell id="CMBcmEEe2xLacPRuAHOP-2" value="&lt;div&gt;&amp;lt;&amp;lt;Altair 390&amp;gt;&amp;gt;&lt;br&gt;&lt;/div&gt;PAMPA" style="shape=umlLifeline;perimeter=lifelinePerimeter;whiteSpace=wrap;html=1;container=1;dropTarget=0;collapsible=0;recursiveResize=0;outlineConnect=0;portConstraint=eastwest;newEdgeStyle={&quot;edgeStyle&quot;:&quot;elbowEdgeStyle&quot;,&quot;elbow&quot;:&quot;vertical&quot;,&quot;curved&quot;:0,&quot;rounded&quot;:0};align=center;fontStyle=1;fillColor=#f8cecc;strokeColor=#b85450;" vertex="1" parent="1">
          <mxGeometry x="2726" y="360" width="160" height="3120" as="geometry" />
        </mxCell>
        <mxCell id="1G6nh8UYInP9JPz63gqY-4" value="" style="html=1;verticalAlign=bottom;labelBackgroundColor=none;endArrow=block;endFill=1;endSize=6;align=left;rounded=0;exitX=0.494;exitY=0.164;exitDx=0;exitDy=0;exitPerimeter=0;entryX=0.501;entryY=0.164;entryDx=0;entryDy=0;entryPerimeter=0;" edge="1" parent="1" source="EzSESSrQrR8SRDhSGEhN-11" target="EzSESSrQrR8SRDhSGEhN-12">
          <mxGeometry x="-1" relative="1" as="geometry">
            <mxPoint x="1370" y="870" as="sourcePoint" />
            <mxPoint x="1607.6799999999998" y="872.239" as="targetPoint" />
            <mxPoint as="offset" />
          </mxGeometry>
        </mxCell>
        <mxCell id="1G6nh8UYInP9JPz63gqY-6" value="" style="html=1;verticalAlign=bottom;labelBackgroundColor=none;endArrow=none;endFill=0;endSize=6;align=left;rounded=0;startArrow=block;startFill=1;dashed=1;entryX=0.499;entryY=0.26;entryDx=0;entryDy=0;entryPerimeter=0;exitX=0.496;exitY=0.261;exitDx=0;exitDy=0;exitPerimeter=0;" edge="1" parent="1" source="ToUPSf5seXOrwuXV1P-5-8" target="EzSESSrQrR8SRDhSGEhN-11">
          <mxGeometry x="-1" relative="1" as="geometry">
            <mxPoint x="1130" y="1169.87" as="sourcePoint" />
            <mxPoint x="1357" y="1169.87" as="targetPoint" />
            <mxPoint as="offset" />
            <Array as="points" />
          </mxGeometry>
        </mxCell>
        <mxCell id="1G6nh8UYInP9JPz63gqY-8" value="" style="html=1;verticalAlign=bottom;labelBackgroundColor=none;endArrow=none;endFill=0;endSize=6;align=left;rounded=0;startArrow=block;startFill=1;dashed=1;entryX=0.495;entryY=0.25;entryDx=0;entryDy=0;entryPerimeter=0;exitX=0.501;exitY=0.25;exitDx=0;exitDy=0;exitPerimeter=0;" edge="1" parent="1" source="EzSESSrQrR8SRDhSGEhN-11" target="EzSESSrQrR8SRDhSGEhN-12">
          <mxGeometry x="-1" relative="1" as="geometry">
            <mxPoint x="1363" y="1140" as="sourcePoint" />
            <mxPoint x="1602" y="1140" as="targetPoint" />
            <mxPoint as="offset" />
            <Array as="points" />
          </mxGeometry>
        </mxCell>
        <mxCell id="eI9l-XEfScTaXbGVceM7-44" value="" style="html=1;verticalAlign=bottom;labelBackgroundColor=none;endArrow=none;endFill=0;endSize=6;align=left;rounded=0;startArrow=block;startFill=1;dashed=1;entryX=0.502;entryY=0.244;entryDx=0;entryDy=0;entryPerimeter=0;exitX=0.502;exitY=0.244;exitDx=0;exitDy=0;exitPerimeter=0;" parent="1" edge="1" target="ToUPSf5seXOrwuXV1P-5-10" source="EzSESSrQrR8SRDhSGEhN-12">
          <mxGeometry x="-1" relative="1" as="geometry">
            <mxPoint x="1601" y="1121.95" as="sourcePoint" />
            <mxPoint x="1828" y="1121.95" as="targetPoint" />
            <mxPoint as="offset" />
            <Array as="points">
              <mxPoint x="1610" y="1121" />
              <mxPoint x="1650" y="1120" />
              <mxPoint x="1710" y="1120" />
            </Array>
          </mxGeometry>
        </mxCell>
      </root>
    </mxGraphModel>
  </diagram>
</mxfile>
